<svg viewBox="0 0 100 100" width="200" height="200" xmlns="http://www.w3.org/2000/svg">
  <!-- Sokrates Profil - Automatisch generiert aus PNG -->
  <!-- Generator v3: Polygon-basiert -->
  <!-- 13 Cyan gefuellt, 10 Cyan Stroke -->
  <!-- 5 Magenta gefuellt, 10 Magenta Stroke -->
  
  <!-- Neon-Glow Filter -->
  <defs>
    <filter id="glow-cyan" x="-100%" y="-100%" width="300%" height="300%">
      <feGaussianBlur stdDeviation="0.9" result="blur1"/>
      <feGaussianBlur stdDeviation="1.8" result="blur2"/>
      <feMerge>
        <feMergeNode in="blur2"/>
        <feMergeNode in="blur1"/>
        <feMergeNode in="SourceGraphic"/>
      </feMerge>
    </filter>
    <filter id="glow-magenta" x="-100%" y="-100%" width="300%" height="300%">
      <feGaussianBlur stdDeviation="0.9" result="blur1"/>
      <feGaussianBlur stdDeviation="1.8" result="blur2"/>
      <feMerge>
        <feMergeNode in="blur2"/>
        <feMergeNode in="blur1"/>
        <feMergeNode in="SourceGraphic"/>
      </feMerge>
    </filter>
  </defs>
  
  <!-- CYAN: Gefuellte Polygone -->
  <g fill="#05d9e8" stroke="none" filter="url(#glow-cyan)">
    <path d="M 34.45 38.28 L 33.81 38.48 L 33.29 38.67 L 32.84 38.87 L 32.49 39.06 L 31.83 39.26 L 33.30 39.45 L 33.74 39.65 L 32.37 39.84 L 34.30 40.04 L 34.04 40.23 L 34.03 40.43 L 34.03 40.43 L 34.07 40.23 L 34.36 40.04 L 32.37 39.84 L 33.74 39.65 L 33.30 39.45 L 32.38 39.26 L 33.57 39.06 L 33.66 38.87 L 33.85 38.67 L 34.45 38.48 L 35.27 38.28 Z"/>
    <path d="M 36.02 37.89 L 35.46 38.09 L 37.06 38.28 L 38.56 38.48 L 39.08 38.67 L 39.50 38.87 L 39.92 39.06 L 40.26 39.26 L 40.56 39.45 L 40.85 39.65 L 41.18 39.84 L 41.47 40.04 L 35.84 40.23 L 34.27 40.43 L 34.03 40.62 L 34.03 40.62 L 34.53 40.43 L 35.84 40.23 L 41.83 40.04 L 41.53 39.84 L 41.23 39.65 L 40.94 39.45 L 40.64 39.26 L 40.30 39.06 L 39.94 38.87 L 39.58 38.67 L 39.12 38.48 L 38.38 38.28 L 37.54 38.09 L 36.98 37.89 Z"/>
    <path d="M 38.15 41.60 L 39.01 41.80 L 33.86 41.99 L 33.86 42.19 L 33.84 42.38 L 33.84 42.38 L 33.92 42.19 L 33.92 41.99 L 39.01 41.80 L 38.21 41.60 Z"/>
    <path d="M 38.04 41.60 L 38.72 41.80 L 35.56 41.99 L 35.67 42.19 L 36.62 42.38 L 35.91 42.58 L 36.00 42.77 L 35.86 42.97 L 36.69 43.16 L 35.47 43.36 L 35.51 43.55 L 37.87 43.75 L 37.65 43.95 L 37.41 44.14 L 37.73 44.14 L 37.94 43.95 L 38.11 43.75 L 35.83 43.55 L 35.82 43.36 L 37.77 43.16 L 37.53 42.97 L 38.08 42.77 L 37.72 42.58 L 37.50 42.38 L 36.79 42.19 L 36.32 41.99 L 38.72 41.80 L 38.04 41.60 Z"/>
    <path d="M 60.94 42.38 L 62.29 42.58 L 62.61 42.77 L 62.84 42.97 L 63.03 43.16 L 63.21 43.36 L 63.35 43.55 L 63.50 43.75 L 63.58 43.95 L 63.64 44.14 L 63.73 44.34 L 63.78 44.53 L 63.96 44.53 L 63.91 44.34 L 63.85 44.14 L 63.76 43.95 L 63.70 43.75 L 63.55 43.55 L 63.45 43.36 L 63.29 43.16 L 63.13 42.97 L 62.93 42.77 L 62.67 42.58 L 60.94 42.38 Z"/>
    <path d="M 60.38 42.19 L 59.80 42.38 L 59.37 42.58 L 59.05 42.77 L 58.84 42.97 L 58.63 43.16 L 58.44 43.36 L 58.28 43.55 L 58.13 43.75 L 58.03 43.95 L 57.88 44.14 L 57.78 44.34 L 57.69 44.53 L 63.83 44.73 L 63.88 44.92 L 64.05 44.92 L 64.00 44.73 L 57.89 44.53 L 57.99 44.34 L 58.09 44.14 L 58.23 43.95 L 58.37 43.75 L 58.52 43.55 L 58.70 43.36 L 58.90 43.16 L 59.13 42.97 L 59.40 42.77 L 59.78 42.58 L 60.51 42.38 L 61.64 42.19 Z"/>
    <path d="M 34.63 45.51 L 34.68 45.70 L 34.75 45.90 L 34.88 46.09 L 35.03 46.29 L 35.19 46.48 L 35.33 46.68 L 35.54 46.88 L 35.74 47.07 L 36.04 47.07 L 35.80 46.88 L 35.57 46.68 L 35.42 46.48 L 35.23 46.29 L 35.09 46.09 L 34.98 45.90 L 34.85 45.70 L 34.80 45.51 Z"/>
    <path d="M 28.66 51.76 L 28.45 51.95 L 29.82 52.15 L 30.21 52.34 L 30.56 52.54 L 29.19 52.73 L 29.99 52.73 L 31.26 52.54 L 30.87 52.34 L 30.48 52.15 L 29.99 51.95 L 29.59 51.76 Z"/>
    <path d="M 32.34 50.20 L 32.49 50.39 L 32.68 50.59 L 32.78 50.78 L 32.88 50.98 L 32.97 51.17 L 33.02 51.37 L 33.07 51.56 L 33.07 51.76 L 33.07 51.95 L 33.02 52.15 L 32.97 52.34 L 32.88 52.54 L 32.73 52.73 L 29.77 52.93 L 30.07 53.12 L 30.73 53.12 L 30.34 52.93 L 32.99 52.73 L 33.14 52.54 L 33.19 52.34 L 33.24 52.15 L 33.29 51.95 L 33.33 51.76 L 33.33 51.56 L 33.29 51.37 L 33.24 51.17 L 33.19 50.98 L 33.09 50.78 L 32.99 50.59 L 32.89 50.39 L 32.70 50.20 Z"/>
    <path d="M 31.95 49.80 L 31.78 50.00 L 31.66 50.20 L 31.65 50.39 L 31.71 50.59 L 31.90 50.78 L 32.05 50.98 L 32.19 51.17 L 32.29 51.37 L 32.34 51.56 L 32.34 51.76 L 32.34 51.95 L 32.24 52.15 L 32.10 52.34 L 31.72 52.54 L 30.92 52.73 L 32.49 52.93 L 32.20 53.12 L 30.57 53.32 L 30.96 53.52 L 31.98 53.52 L 32.32 53.32 L 32.69 53.12 L 32.89 52.93 L 31.97 52.73 L 32.25 52.54 L 32.40 52.34 L 32.50 52.15 L 32.56 51.95 L 32.60 51.76 L 32.60 51.56 L 32.55 51.37 L 32.46 51.17 L 32.36 50.98 L 32.26 50.78 L 32.06 50.59 L 31.87 50.39 L 31.92 50.20 L 32.48 50.00 L 32.17 49.80 Z"/>
    <path d="M 56.50 53.71 L 56.32 53.91 L 56.31 54.10 L 56.37 54.30 L 56.52 54.49 L 56.72 54.69 L 56.95 54.69 L 56.76 54.49 L 56.57 54.30 L 56.48 54.10 L 56.52 53.91 L 56.97 53.71 Z"/>
    <path d="M 27.81 60.35 L 27.70 60.55 L 27.65 60.74 L 27.60 60.94 L 27.55 61.13 L 27.55 61.33 L 27.55 61.52 L 27.60 61.72 L 27.65 61.91 L 27.75 62.11 L 28.06 62.11 L 27.92 61.91 L 27.87 61.72 L 27.82 61.52 L 27.77 61.33 L 27.77 61.13 L 27.82 60.94 L 27.87 60.74 L 28.01 60.55 L 28.20 60.35 Z"/>
    <path d="M 27.97 60.16 L 28.34 60.35 L 28.53 60.55 L 28.38 60.74 L 28.33 60.94 L 28.28 61.13 L 28.24 61.33 L 28.29 61.52 L 28.34 61.72 L 28.59 61.91 L 28.84 62.11 L 27.85 62.30 L 28.01 62.50 L 28.44 62.70 L 28.95 62.89 L 30.53 62.89 L 31.52 62.70 L 28.63 62.50 L 28.25 62.30 L 31.08 62.11 L 31.71 61.91 L 28.65 61.72 L 28.55 61.52 L 28.50 61.33 L 28.50 61.13 L 28.55 60.94 L 28.65 60.74 L 28.75 60.55 L 28.74 60.35 L 28.63 60.16 Z"/>
  </g>
  
  <!-- CYAN: Offene Linien (Stroke) -->
  <g fill="none" stroke="#05d9e8" stroke-linecap="round" stroke-linejoin="round" filter="url(#glow-cyan)">
    <path d="M 51.27 17.58 Q 51.54 17.77, 53.41 17.87 Q 55.27 17.97, 56.03 18.07 Q 56.79 18.16, 57.28 18.26 Q 57.76 18.36, 58.22 18.46 Q 58.67 18.55, 59.06 18.65 Q 59.45 18.75, 59.80 18.85 Q 60.16 18.95, 60.42 19.04 Q 60.69 19.14, 60.97 19.24 Q 61.25 19.34, 61.50 19.43 Q 61.74 19.53, 61.99 19.63 Q 62.23 19.73, 62.48 19.82 Q 62.72 19.92, 62.93 20.02 Q 63.13 20.12, 63.32 20.21 Q 63.50 20.31, 63.70 20.41 Q 63.89 20.51, 64.06 20.61 Q 64.23 20.70, 64.40 20.80 Q 64.58 20.90, 64.73 21.00 Q 64.89 21.09, 65.04 21.19 Q 65.19 21.29, 65.33 21.39 Q 65.48 21.48, 65.62 21.58 Q 65.77 21.68, 65.91 21.78 Q 66.04 21.88, 66.16 21.97 Q 66.28 22.07, 66.41 22.17 Q 66.53 22.27, 66.64 22.36 Q 66.75 22.46, 66.87 22.56 Q 66.99 22.66, 67.10 22.75 Q 67.21 22.85, 67.31 22.95 Q 67.41 23.05, 67.50 23.14 Q 67.60 23.24, 67.70 23.34 Q 67.80 23.44, 67.90 23.54 Q 67.99 23.63, 68.09 23.73 Q 68.19 23.83, 68.26 23.93 Q 68.33 24.02, 68.43 24.12 Q 68.53 24.22, 68.62 24.32 Q 68.70 24.41, 68.79 24.51 Q 68.87 24.61, 68.96 24.71 Q 69.04 24.80, 69.12 24.90 Q 69.19 25.00, 69.26 25.10 Q 69.34 25.20, 69.41 25.29 Q 69.48 25.39, 69.54 25.49 Q 69.60 25.59, 69.67 25.68 Q 69.73 25.78, 69.79 25.88 Q 69.85 25.98, 69.92 26.07 Q 70.00 26.17, 70.04 26.27 Q 70.09 26.37, 70.15 26.46 Q 70.21 26.56, 70.28 26.66 Q 70.34 26.76, 70.39 26.86 L 70.43 26.95" stroke-width="0.55"/>
    <path d="M 47.92 16.99 Q 51.39 17.19, 53.82 17.29 Q 56.25 17.38, 56.86 17.48 Q 57.47 17.58, 57.97 17.68 Q 58.47 17.77, 58.87 17.87 Q 59.28 17.97, 59.63 18.07 Q 59.99 18.16, 60.29 18.26 Q 60.60 18.36, 60.90 18.46 Q 61.21 18.55, 61.46 18.65 Q 61.72 18.75, 61.98 18.85 Q 62.23 18.95, 62.46 19.04 Q 62.70 19.14, 62.90 19.24 Q 63.11 19.34, 63.31 19.43 Q 63.50 19.53, 63.70 19.63 Q 63.89 19.73, 64.07 19.82 Q 64.26 19.92, 64.45 20.02 Q 64.65 20.12, 64.81 20.21 Q 64.97 20.31, 65.12 20.41 Q 65.28 20.51, 65.43 20.61 Q 65.58 20.70, 65.73 20.80 Q 65.89 20.90, 66.04 21.00 Q 66.19 21.09, 66.31 21.19 Q 66.43 21.29, 66.55 21.39 Q 66.67 21.48, 66.80 21.58 Q 66.92 21.68, 67.05 21.78 Q 67.19 21.88, 67.30 21.97 Q 67.41 22.07, 67.50 22.17 Q 67.60 22.27, 67.72 22.36 Q 67.85 22.46, 67.96 22.56 Q 68.07 22.66, 68.16 22.75 Q 68.26 22.85, 68.36 22.95 Q 68.46 23.05, 68.55 23.14 Q 68.65 23.24, 68.74 23.34 Q 68.82 23.44, 68.90 23.54 Q 68.97 23.63, 69.07 23.73 Q 69.17 23.83, 69.25 23.93 Q 69.34 24.02, 69.41 24.12 Q 69.48 24.22, 69.56 24.32 Q 69.63 24.41, 69.70 24.51 Q 69.78 24.61, 69.85 24.71 Q 69.92 24.80, 70.00 24.90 Q 70.07 25.00, 70.13 25.10 Q 70.19 25.20, 70.26 25.29 Q 70.34 25.39, 70.40 25.49 Q 70.46 25.59, 70.52 25.68 Q 70.58 25.78, 70.64 25.88 Q 70.70 25.98, 70.76 26.07 Q 70.83 26.17, 70.89 26.27 Q 70.95 26.37, 71.01 26.46 Q 71.07 26.56, 71.11 26.66 Q 71.14 26.76, 71.17 26.86 Q 71.19 26.95, 71.01 27.05 Q 70.83 27.15, 70.81 27.25 L 70.80 27.34" stroke-width="0.49"/>
    <path d="M 38.33 37.30 Q 38.09 37.50, 38.44 37.60 Q 38.79 37.70, 39.04 37.79 Q 39.28 37.89, 39.53 37.99 Q 39.77 38.09, 39.98 38.18 Q 40.19 38.28, 40.36 38.38 Q 40.53 38.48, 40.70 38.57 Q 40.87 38.67, 41.04 38.77 Q 41.21 38.87, 41.36 38.96 Q 41.50 39.06, 41.64 39.16 Q 41.77 39.26, 41.91 39.36 Q 42.04 39.45, 42.14 39.55 Q 42.24 39.65, 42.31 39.75 Q 42.38 39.84, 42.38 39.94 Q 42.38 40.04, 42.21 40.14 Q 42.04 40.23, 42.05 40.33 Q 42.07 40.43, 38.20 40.53 Q 34.33 40.62, 34.29 40.72 Q 34.25 40.82, 34.14 40.92 Q 34.03 41.02, 33.87 41.11 Q 33.72 41.21, 33.70 41.31 Q 33.69 41.41, 33.90 41.50 Q 34.11 41.60, 34.46 41.70 Q 34.81 41.80, 34.67 41.89 Q 34.52 41.99, 34.61 42.09 Q 34.69 42.19, 34.70 42.29 Q 34.72 42.38, 34.72 42.48 Q 34.72 42.58, 34.72 42.68 Q 34.72 42.77, 34.73 42.87 Q 34.74 42.97, 34.75 43.07 Q 34.77 43.16, 34.79 43.26 Q 34.81 43.36, 34.83 43.46 Q 34.84 43.55, 34.88 43.65 Q 34.91 43.75, 34.95 43.85 Q 34.99 43.95, 35.02 44.04 Q 35.06 44.14, 36.17 44.24 Q 37.28 44.34, 37.10 44.43 Q 36.91 44.53, 35.84 44.63 Q 34.77 44.73, 34.79 44.82 L 34.81 44.92" stroke-width="0.40"/>
    <path d="M 36.55 37.30 Q 35.06 37.50, 34.66 37.60 Q 34.25 37.70, 33.94 37.79 Q 33.62 37.89, 33.31 37.99 Q 33.01 38.09, 32.76 38.18 Q 32.52 38.28, 32.29 38.38 Q 32.06 38.48, 31.82 38.57 Q 31.59 38.67, 31.43 38.77 Q 31.27 38.87, 31.15 38.96 Q 31.03 39.06, 31.03 39.16 Q 31.03 39.26, 31.29 39.36 Q 31.54 39.45, 31.48 39.55 Q 31.42 39.65, 31.82 39.75 Q 32.23 39.84, 33.20 39.94 Q 34.18 40.04, 34.56 40.14 Q 34.94 40.23, 35.17 40.33 Q 35.40 40.43, 35.42 40.53 Q 35.45 40.62, 35.44 40.72 Q 35.42 40.82, 35.41 40.92 Q 35.40 41.02, 35.50 41.11 Q 35.60 41.21, 35.95 41.31 Q 36.30 41.41, 36.68 41.50 Q 37.06 41.60, 37.46 41.70 Q 37.87 41.80, 38.07 41.89 Q 38.28 41.99, 38.53 42.09 Q 38.77 42.19, 38.98 42.29 Q 39.18 42.38, 39.36 42.48 Q 39.53 42.58, 39.61 42.68 Q 39.70 42.77, 39.71 42.87 Q 39.72 42.97, 39.51 43.07 Q 39.31 43.16, 38.22 43.26 Q 37.13 43.36, 37.00 43.46 Q 36.87 43.55, 36.60 43.65 Q 36.33 43.75, 36.28 43.85 Q 36.23 43.95, 36.19 44.04 Q 36.16 44.14, 35.64 44.24 Q 35.13 44.34, 35.23 44.43 Q 35.33 44.53, 35.63 44.63 Q 35.94 44.73, 35.69 44.82 Q 35.45 44.92, 35.40 45.02 Q 35.35 45.12, 35.33 45.21 Q 35.30 45.31, 35.47 45.41 Q 35.64 45.51, 35.67 45.61 Q 35.69 45.70, 35.73 45.80 Q 35.77 45.90, 35.88 46.00 Q 35.99 46.09, 36.04 46.19 Q 36.08 46.29, 36.17 46.39 Q 36.25 46.48, 36.35 46.58 Q 36.45 46.68, 36.50 46.78 Q 36.55 46.88, 36.54 46.97 Q 36.52 47.07, 36.40 47.17 L 36.28 47.27" stroke-width="0.56"/>
    <path d="M 47.63 17.97 Q 46.09 18.16, 45.53 18.26 Q 44.97 18.36, 44.54 18.46 Q 44.12 18.55, 43.77 18.65 Q 43.43 18.75, 43.04 18.85 Q 42.65 18.95, 42.33 19.04 Q 42.02 19.14, 41.72 19.24 Q 41.43 19.34, 41.16 19.43 Q 40.89 19.53, 40.65 19.63 Q 40.41 19.73, 40.17 19.82 Q 39.94 19.92, 39.73 20.02 Q 39.53 20.12, 39.36 20.21 Q 39.18 20.31, 38.99 20.41 Q 38.79 20.51, 38.60 20.61 Q 38.40 20.70, 38.23 20.80 Q 38.06 20.90, 37.88 21.00 Q 37.70 21.09, 37.54 21.19 Q 37.38 21.29, 37.23 21.39 Q 37.08 21.48, 36.94 21.58 Q 36.79 21.68, 36.66 21.78 Q 36.52 21.88, 36.39 21.97 Q 36.25 22.07, 36.13 22.17 Q 36.01 22.27, 35.89 22.36 Q 35.77 22.46, 35.66 22.56 Q 35.55 22.66, 35.42 22.75 Q 35.30 22.85, 35.19 22.95 Q 35.08 23.05, 34.99 23.14 Q 34.89 23.24, 34.79 23.34 Q 34.69 23.44, 34.59 23.54 Q 34.50 23.63, 34.40 23.73 Q 34.30 23.83, 34.20 23.93 Q 34.11 24.02, 34.01 24.12 Q 33.91 24.22, 33.84 24.32 Q 33.76 24.41, 33.68 24.51 Q 33.59 24.61, 33.51 24.71 Q 33.42 24.80, 33.35 24.90 Q 33.28 25.00, 33.20 25.10 Q 33.13 25.20, 33.06 25.29 Q 32.98 25.39, 32.91 25.49 Q 32.84 25.59, 32.78 25.68 Q 32.71 25.78, 32.64 25.88 Q 32.57 25.98, 32.51 26.07 Q 32.45 26.17, 32.39 26.27 Q 32.32 26.37, 32.28 26.46 Q 32.23 26.56, 32.17 26.66 Q 32.10 26.76, 32.06 26.86 Q 32.01 26.95, 31.95 27.05 Q 31.88 27.15, 31.84 27.25 Q 31.79 27.34, 31.73 27.44 Q 31.67 27.54, 31.62 27.64 Q 31.57 27.73, 31.52 27.83 Q 31.47 27.93, 31.45 28.03 Q 31.42 28.12, 31.36 28.22 Q 31.30 28.32, 31.26 28.42 Q 31.23 28.52, 31.18 28.61 Q 31.13 28.71, 31.10 28.81 Q 31.08 28.91, 31.04 29.00 Q 31.01 29.10, 30.97 29.20 Q 30.93 29.30, 30.90 29.39 Q 30.86 29.49, 30.83 29.59 Q 30.81 29.69, 30.79 29.79 Q 30.76 29.88, 30.74 29.98 Q 30.71 30.08, 30.69 30.18 Q 30.66 30.27, 30.64 30.37 Q 30.62 30.47, 30.59 30.57 Q 30.57 30.66, 30.54 30.76 Q 30.52 30.86, 30.47 30.96 Q 30.42 31.05, 30.40 31.15 Q 30.37 31.25, 30.35 31.35 Q 30.32 31.45, 30.30 31.54 Q 30.27 31.64, 30.25 31.74 Q 30.22 31.84, 30.20 31.93 Q 30.18 32.03, 30.14 32.13 Q 30.10 32.23, 30.08 32.32 Q 30.05 32.42, 30.02 32.52 Q 29.98 32.62, 29.96 32.71 Q 29.93 32.81, 29.91 32.91 Q 29.88 33.01, 29.85 33.11 Q 29.81 33.20, 29.77 33.30 Q 29.74 33.40, 29.71 33.50 Q 29.69 33.59, 29.66 33.69 Q 29.64 33.79, 29.60 33.89 Q 29.57 33.98, 29.53 34.08 Q 29.49 34.18, 29.47 34.28 Q 29.44 34.38, 29.41 34.47 Q 29.37 34.57, 29.33 34.67 Q 29.30 34.77, 29.27 34.86 Q 29.25 34.96, 29.21 35.06 Q 29.17 35.16, 29.14 35.25 Q 29.10 35.35, 29.06 35.45 Q 29.03 35.55, 28.99 35.64 Q 28.96 35.74, 28.92 35.84 Q 28.88 35.94, 28.85 36.04 Q 28.81 36.13, 28.77 36.23 Q 28.74 36.33, 28.70 36.43 Q 28.66 36.52, 28.64 36.62 Q 28.61 36.72, 28.58 36.82 Q 28.54 36.91, 28.50 37.01 Q 28.47 37.11, 28.44 37.21 Q 28.42 37.30, 28.39 37.40 Q 28.37 37.50, 28.34 37.60 Q 28.32 37.70, 28.32 37.79 Q 28.32 37.89, 28.32 37.99 Q 28.32 38.09, 28.32 38.18 Q 28.32 38.28, 28.34 38.38 Q 28.37 38.48, 28.38 38.57 Q 28.39 38.67, 28.42 38.77 Q 28.44 38.87, 28.47 38.96 Q 28.49 39.06, 28.55 39.16 Q 28.61 39.26, 28.66 39.36 Q 28.71 39.45, 28.76 39.55 Q 28.81 39.65, 28.88 39.75 Q 28.96 39.84, 29.02 39.94 Q 29.08 40.04, 29.14 40.14 Q 29.20 40.23, 29.26 40.33 Q 29.32 40.43, 29.38 40.53 Q 29.44 40.62, 29.50 40.72 Q 29.57 40.82, 29.61 40.92 Q 29.66 41.02, 29.70 41.11 Q 29.74 41.21, 29.76 41.31 Q 29.79 41.41, 29.81 41.50 Q 29.83 41.60, 29.85 41.70 Q 29.86 41.80, 29.86 41.89 Q 29.86 41.99, 29.85 42.09 Q 29.83 42.19, 29.82 42.29 Q 29.81 42.38, 29.79 42.48 Q 29.76 42.58, 29.72 42.68 Q 29.69 42.77, 29.65 42.87 Q 29.61 42.97, 29.55 43.07 Q 29.49 43.16, 29.43 43.26 Q 29.37 43.36, 29.31 43.46 Q 29.25 43.55, 29.17 43.65 Q 29.10 43.75, 29.03 43.85 Q 28.96 43.95, 28.88 44.04 Q 28.81 44.14, 28.71 44.24 Q 28.61 44.34, 28.54 44.43 Q 28.47 44.53, 28.39 44.63 Q 28.32 44.73, 28.25 44.82 Q 28.17 44.92, 28.08 45.02 Q 27.98 45.12, 27.91 45.21 Q 27.83 45.31, 27.75 45.41 Q 27.66 45.51, 27.56 45.61 Q 27.47 45.70, 27.39 45.80 Q 27.32 45.90, 27.23 46.00 Q 27.15 46.09, 27.08 46.19 Q 27.00 46.29, 26.90 46.39 Q 26.81 46.48, 26.73 46.58 Q 26.66 46.68, 26.57 46.78 Q 26.49 46.88, 26.40 46.97 Q 26.32 47.07, 26.25 47.17 Q 26.17 47.27, 26.10 47.36 Q 26.03 47.46, 25.96 47.56 Q 25.90 47.66, 25.83 47.75 Q 25.76 47.85, 25.68 47.95 Q 25.61 48.05, 25.54 48.14 Q 25.46 48.24, 25.42 48.34 Q 25.37 48.44, 25.29 48.54 Q 25.22 48.63, 25.16 48.73 Q 25.10 48.83, 25.04 48.93 Q 24.98 49.02, 24.93 49.12 Q 24.88 49.22, 24.83 49.32 Q 24.78 49.41, 24.74 49.51 Q 24.71 49.61, 24.66 49.71 Q 24.61 49.80, 24.60 49.90 Q 24.58 50.00, 24.55 50.10 Q 24.51 50.20, 24.49 50.29 Q 24.46 50.39, 24.45 50.49 Q 24.44 50.59, 24.44 50.68 Q 24.44 50.78, 24.45 50.88 Q 24.46 50.98, 24.48 51.07 Q 24.49 51.17, 24.52 51.27 Q 24.56 51.37, 24.62 51.46 Q 24.68 51.56, 24.73 51.66 Q 24.78 51.76, 24.87 51.86 Q 24.95 51.95, 25.06 52.05 Q 25.17 52.15, 25.31 52.25 Q 25.44 52.34, 25.66 52.44 Q 25.88 52.54, 26.16 52.64 Q 26.44 52.73, 26.78 52.83 Q 27.12 52.93, 27.50 53.03 Q 27.88 53.12, 28.15 53.22 Q 28.42 53.32, 28.50 53.42 Q 28.59 53.52, 28.58 53.61 L 28.56 53.71" stroke-width="0.40"/>
    <path d="M 46.56 17.38 Q 45.39 17.58, 44.86 17.68 Q 44.34 17.77, 43.92 17.87 Q 43.51 17.97, 43.12 18.07 Q 42.72 18.16, 42.40 18.26 Q 42.07 18.36, 41.76 18.46 Q 41.46 18.55, 41.20 18.65 Q 40.94 18.75, 40.71 18.85 Q 40.48 18.95, 40.25 19.04 Q 40.01 19.14, 39.79 19.24 Q 39.58 19.34, 39.37 19.43 Q 39.16 19.53, 38.94 19.63 Q 38.72 19.73, 38.53 19.82 Q 38.33 19.92, 38.16 20.02 Q 37.99 20.12, 37.82 20.21 Q 37.65 20.31, 37.49 20.41 Q 37.33 20.51, 37.17 20.61 Q 37.01 20.70, 36.87 20.80 Q 36.72 20.90, 36.56 21.00 Q 36.40 21.09, 36.27 21.19 Q 36.13 21.29, 36.00 21.39 Q 35.86 21.48, 35.73 21.58 Q 35.60 21.68, 35.49 21.78 Q 35.38 21.88, 35.24 21.97 Q 35.11 22.07, 35.00 22.17 Q 34.89 22.27, 34.78 22.36 Q 34.67 22.46, 34.56 22.56 Q 34.45 22.66, 34.35 22.75 Q 34.25 22.85, 34.16 22.95 Q 34.06 23.05, 33.96 23.14 Q 33.86 23.24, 33.76 23.34 Q 33.67 23.44, 33.59 23.54 Q 33.52 23.63, 33.42 23.73 Q 33.33 23.83, 33.24 23.93 Q 33.15 24.02, 33.08 24.12 Q 33.01 24.22, 32.92 24.32 Q 32.84 24.41, 32.75 24.51 Q 32.67 24.61, 32.59 24.71 Q 32.52 24.80, 32.45 24.90 Q 32.37 25.00, 32.31 25.10 Q 32.25 25.20, 32.18 25.29 Q 32.10 25.39, 32.04 25.49 Q 31.98 25.59, 31.91 25.68 Q 31.84 25.78, 31.79 25.88 Q 31.74 25.98, 31.68 26.07 Q 31.62 26.17, 31.56 26.27 Q 31.49 26.37, 31.43 26.46 Q 31.37 26.56, 31.32 26.66 Q 31.27 26.76, 31.23 26.86 Q 31.18 26.95, 31.13 27.05 Q 31.08 27.15, 31.03 27.25 Q 30.98 27.34, 30.93 27.44 Q 30.88 27.54, 30.83 27.64 Q 30.79 27.73, 30.75 27.83 Q 30.71 27.93, 30.66 28.03 Q 30.62 28.12, 30.58 28.22 Q 30.54 28.32, 30.49 28.42 Q 30.44 28.52, 30.42 28.61 Q 30.40 28.71, 30.36 28.81 Q 30.32 28.91, 30.29 29.00 Q 30.25 29.10, 30.22 29.20 Q 30.20 29.30, 30.18 29.39 Q 30.15 29.49, 30.10 29.59 Q 30.05 29.69, 30.04 29.79 Q 30.03 29.88, 29.99 29.98 Q 29.96 30.08, 29.93 30.18 Q 29.91 30.27, 29.88 30.37 Q 29.86 30.47, 29.82 30.57 Q 29.79 30.66, 29.76 30.76 Q 29.74 30.86, 29.71 30.96 Q 29.69 31.05, 29.66 31.15 Q 29.64 31.25, 29.61 31.35 Q 29.59 31.45, 29.57 31.54 Q 29.54 31.64, 29.52 31.74 Q 29.49 31.84, 29.47 31.93 Q 29.44 32.03, 29.41 32.13 Q 29.37 32.23, 29.35 32.32 Q 29.32 32.42, 29.30 32.52 Q 29.27 32.62, 29.24 32.71 Q 29.20 32.81, 29.17 32.91 Q 29.15 33.01, 29.11 33.11 Q 29.08 33.20, 29.05 33.30 Q 29.03 33.40, 28.99 33.50 Q 28.96 33.59, 28.92 33.69 Q 28.88 33.79, 28.86 33.89 Q 28.83 33.98, 28.78 34.08 Q 28.74 34.18, 28.71 34.28 Q 28.69 34.38, 28.65 34.47 Q 28.61 34.57, 28.58 34.67 Q 28.54 34.77, 28.52 34.86 Q 28.49 34.96, 28.45 35.06 Q 28.42 35.16, 28.38 35.25 Q 28.34 35.35, 28.31 35.45 Q 28.27 35.55, 28.23 35.64 Q 28.20 35.74, 28.16 35.84 Q 28.12 35.94, 28.10 36.04 Q 28.08 36.13, 28.04 36.23 Q 28.00 36.33, 27.97 36.43 Q 27.93 36.52, 27.91 36.62 Q 27.88 36.72, 27.84 36.82 Q 27.81 36.91, 27.78 37.01 Q 27.76 37.11, 27.73 37.21 Q 27.71 37.30, 27.70 37.40 Q 27.69 37.50, 27.66 37.60 Q 27.64 37.70, 27.64 37.79 Q 27.64 37.89, 27.64 37.99 Q 27.64 38.09, 27.64 38.18 Q 27.64 38.28, 27.64 38.38 Q 27.64 38.48, 27.65 38.57 Q 27.66 38.67, 27.67 38.77 Q 27.69 38.87, 27.71 38.96 Q 27.73 39.06, 27.77 39.16 Q 27.81 39.26, 27.84 39.36 Q 27.88 39.45, 27.92 39.55 Q 27.95 39.65, 28.00 39.75 Q 28.05 39.84, 28.10 39.94 Q 28.15 40.04, 28.23 40.14 Q 28.32 40.23, 28.39 40.33 Q 28.47 40.43, 28.54 40.53 Q 28.61 40.62, 28.67 40.72 Q 28.74 40.82, 28.78 40.92 Q 28.83 41.02, 28.88 41.11 Q 28.93 41.21, 28.98 41.31 Q 29.03 41.41, 29.06 41.50 Q 29.10 41.60, 29.11 41.70 Q 29.13 41.80, 29.13 41.89 Q 29.13 41.99, 29.11 42.09 Q 29.10 42.19, 29.09 42.29 Q 29.08 42.38, 29.03 42.48 Q 28.98 42.58, 28.93 42.68 Q 28.88 42.77, 28.83 42.87 Q 28.78 42.97, 28.72 43.07 Q 28.66 43.16, 28.59 43.26 Q 28.52 43.36, 28.44 43.46 Q 28.37 43.55, 28.30 43.65 Q 28.22 43.75, 28.14 43.85 Q 28.05 43.95, 27.95 44.04 Q 27.86 44.14, 27.77 44.24 Q 27.69 44.34, 27.60 44.43 Q 27.51 44.53, 27.43 44.63 Q 27.34 44.73, 27.27 44.82 Q 27.20 44.92, 27.12 45.02 Q 27.05 45.12, 26.97 45.21 Q 26.88 45.31, 26.79 45.41 Q 26.71 45.51, 26.62 45.61 Q 26.54 45.70, 26.45 45.80 Q 26.37 45.90, 26.29 46.00 Q 26.22 46.09, 26.12 46.19 Q 26.03 46.29, 25.95 46.39 Q 25.88 46.48, 25.81 46.58 Q 25.73 46.68, 25.66 46.78 Q 25.59 46.88, 25.51 46.97 Q 25.44 47.07, 25.37 47.17 Q 25.29 47.27, 25.22 47.36 Q 25.15 47.46, 25.07 47.56 Q 25.00 47.66, 24.93 47.75 Q 24.85 47.85, 24.79 47.95 Q 24.73 48.05, 24.68 48.14 Q 24.63 48.24, 24.56 48.34 Q 24.49 48.44, 24.44 48.54 Q 24.39 48.63, 24.34 48.73 Q 24.29 48.83, 24.24 48.93 Q 24.19 49.02, 24.15 49.12 Q 24.10 49.22, 24.04 49.32 Q 23.97 49.41, 23.95 49.51 Q 23.93 49.61, 23.90 49.71 Q 23.88 49.80, 23.85 49.90 Q 23.83 50.00, 23.80 50.10 Q 23.78 50.20, 23.75 50.29 Q 23.73 50.39, 23.73 50.49 Q 23.73 50.59, 23.73 50.68 Q 23.73 50.78, 23.73 50.88 Q 23.73 50.98, 23.74 51.07 Q 23.75 51.17, 23.77 51.27 Q 23.78 51.37, 23.82 51.46 Q 23.85 51.56, 23.89 51.66 Q 23.93 51.76, 23.97 51.86 Q 24.02 51.95, 24.10 52.05 Q 24.17 52.15, 24.24 52.25 Q 24.32 52.34, 24.43 52.44 Q 24.54 52.54, 24.66 52.64 Q 24.78 52.73, 24.93 52.83 Q 25.07 52.93, 25.26 53.03 Q 25.44 53.12, 25.67 53.22 Q 25.90 53.32, 26.21 53.42 Q 26.51 53.52, 26.90 53.61 Q 27.29 53.71, 27.67 53.81 L 28.05 53.91" stroke-width="0.40"/>
    <path d="M 62.50 41.80 Q 62.89 41.99, 63.02 42.09 Q 63.16 42.19, 63.28 42.29 Q 63.40 42.38, 63.50 42.48 Q 63.60 42.58, 63.70 42.68 Q 63.79 42.77, 63.87 42.87 Q 63.94 42.97, 63.99 43.07 Q 64.04 43.16, 64.11 43.26 Q 64.18 43.36, 64.23 43.46 Q 64.28 43.55, 64.33 43.65 Q 64.38 43.75, 64.42 43.85 Q 64.45 43.95, 64.49 44.04 Q 64.53 44.14, 64.56 44.24 Q 64.60 44.34, 64.62 44.43 Q 64.65 44.53, 64.67 44.63 Q 64.70 44.73, 64.70 44.82 Q 64.70 44.92, 64.72 45.02 Q 64.75 45.12, 64.75 45.21 Q 64.75 45.31, 64.76 45.41 Q 64.77 45.51, 64.77 45.61 Q 64.77 45.70, 64.77 45.80 Q 64.77 45.90, 64.76 46.00 Q 64.75 46.09, 64.75 46.19 Q 64.75 46.29, 64.72 46.39 Q 64.70 46.48, 64.70 46.58 Q 64.70 46.68, 64.67 46.78 Q 64.65 46.88, 64.62 46.97 Q 64.60 47.07, 64.58 47.17 Q 64.55 47.27, 64.53 47.36 Q 64.50 47.46, 64.48 47.56 Q 64.45 47.66, 64.42 47.75 Q 64.38 47.85, 64.34 47.95 Q 64.31 48.05, 64.26 48.14 Q 64.21 48.24, 64.17 48.34 Q 64.14 48.44, 64.07 48.54 Q 64.01 48.63, 63.95 48.73 Q 63.89 48.83, 63.84 48.93 Q 63.79 49.02, 63.72 49.12 Q 63.65 49.22, 63.59 49.32 Q 63.53 49.41, 63.45 49.51 Q 63.38 49.61, 63.31 49.71 Q 63.23 49.80, 63.15 49.90 Q 63.06 50.00, 62.98 50.10 Q 62.89 50.20, 62.82 50.29 Q 62.74 50.39, 62.65 50.49 Q 62.55 50.59, 62.46 50.68 Q 62.38 50.78, 62.29 50.88 Q 62.21 50.98, 62.15 51.07 Q 62.08 51.17, 62.01 51.27 Q 61.94 51.37, 61.87 51.46 Q 61.79 51.56, 61.74 51.66 Q 61.69 51.76, 61.65 51.86 Q 61.60 51.95, 61.54 52.05 Q 61.47 52.15, 61.43 52.25 Q 61.38 52.34, 61.33 52.44 Q 61.28 52.54, 61.23 52.64 Q 61.18 52.73, 61.13 52.83 Q 61.08 52.93, 61.04 53.03 Q 60.99 53.12, 60.93 53.22 Q 60.86 53.32, 60.82 53.42 Q 60.77 53.52, 60.69 53.61 Q 60.62 53.71, 60.57 53.81 Q 60.52 53.91, 60.45 54.00 Q 60.38 54.10, 60.29 54.20 Q 60.21 54.30, 60.12 54.39 Q 60.03 54.49, 59.92 54.59 Q 59.81 54.69, 59.66 54.79 L 59.50 54.88" stroke-width="0.40"/>
    <path d="M 61.01 41.41 Q 61.01 41.60, 60.27 41.70 Q 59.52 41.80, 59.33 41.89 Q 59.13 41.99, 58.97 42.09 Q 58.81 42.19, 58.68 42.29 Q 58.54 42.38, 58.44 42.48 Q 58.33 42.58, 58.23 42.68 Q 58.13 42.77, 58.04 42.87 Q 57.96 42.97, 57.89 43.07 Q 57.81 43.16, 57.73 43.26 Q 57.64 43.36, 57.57 43.46 Q 57.50 43.55, 57.45 43.65 Q 57.40 43.75, 57.35 43.85 Q 57.30 43.95, 57.25 44.04 Q 57.20 44.14, 57.15 44.24 Q 57.10 44.34, 57.08 44.43 Q 57.06 44.53, 57.21 44.63 Q 57.37 44.73, 57.37 44.82 Q 57.37 44.92, 60.68 45.02 Q 63.99 45.12, 64.00 45.21 Q 64.01 45.31, 64.01 45.41 Q 64.01 45.51, 64.01 45.61 Q 64.01 45.70, 64.03 45.80 Q 64.04 45.90, 64.04 46.00 Q 64.04 46.09, 64.03 46.19 Q 64.01 46.29, 64.01 46.39 Q 64.01 46.48, 63.99 46.58 Q 63.96 46.68, 63.94 46.78 Q 63.92 46.88, 63.89 46.97 Q 63.87 47.07, 63.84 47.17 Q 63.82 47.27, 63.79 47.36 Q 63.77 47.46, 63.73 47.56 Q 63.70 47.66, 63.66 47.75 Q 63.62 47.85, 63.56 47.95 Q 63.50 48.05, 63.45 48.14 Q 63.40 48.24, 63.35 48.34 Q 63.31 48.44, 63.24 48.54 Q 63.18 48.63, 63.12 48.73 Q 63.06 48.83, 63.00 48.93 Q 62.94 49.02, 62.85 49.12 Q 62.77 49.22, 62.68 49.32 Q 62.60 49.41, 62.51 49.51 Q 62.43 49.61, 62.35 49.71 Q 62.28 49.80, 62.19 49.90 Q 62.11 50.00, 62.02 50.10 Q 61.94 50.20, 61.85 50.29 Q 61.77 50.39, 61.69 50.49 Q 61.62 50.59, 61.55 50.68 Q 61.47 50.78, 61.41 50.88 Q 61.35 50.98, 61.28 51.07 Q 61.21 51.17, 61.15 51.27 Q 61.08 51.37, 61.02 51.46 Q 60.96 51.56, 60.91 51.66 Q 60.86 51.76, 60.80 51.86 Q 60.74 51.95, 60.69 52.05 Q 60.64 52.15, 60.61 52.25 Q 60.57 52.34, 60.52 52.44 Q 60.47 52.54, 60.42 52.64 Q 60.38 52.73, 60.33 52.83 Q 60.28 52.93, 60.23 53.03 Q 60.18 53.12, 60.11 53.22 Q 60.03 53.32, 59.97 53.42 Q 59.91 53.52, 59.84 53.61 Q 59.77 53.71, 59.68 53.81 Q 59.59 53.91, 59.47 54.00 Q 59.35 54.10, 59.19 54.20 Q 59.03 54.30, 58.65 54.39 Q 58.28 54.49, 58.24 54.59 Q 58.20 54.69, 57.67 54.79 Q 57.13 54.88, 57.71 54.98 Q 58.30 55.08, 58.29 55.18 L 58.28 55.27" stroke-width="0.40"/>
    <path d="M 68.95 59.18 Q 68.92 59.38, 68.91 59.47 Q 68.90 59.57, 68.88 59.67 Q 68.87 59.77, 68.86 59.86 Q 68.85 59.96, 68.84 60.06 Q 68.82 60.16, 68.80 60.25 Q 68.77 60.35, 68.76 60.45 Q 68.75 60.55, 68.75 60.64 Q 68.75 60.74, 68.74 60.84 Q 68.73 60.94, 68.71 61.04 Q 68.70 61.13, 68.70 61.23 Q 68.70 61.33, 68.69 61.43 Q 68.68 61.52, 68.68 61.62 Q 68.68 61.72, 68.66 61.82 Q 68.65 61.91, 68.65 62.01 Q 68.65 62.11, 68.65 62.21 Q 68.65 62.30, 68.65 62.40 Q 68.65 62.50, 68.65 62.60 Q 68.65 62.70, 68.65 62.79 Q 68.65 62.89, 68.65 62.99 Q 68.65 63.09, 68.65 63.18 Q 68.65 63.28, 68.66 63.38 Q 68.68 63.48, 68.69 63.57 Q 68.70 63.67, 68.70 63.77 Q 68.70 63.87, 68.70 63.96 Q 68.70 64.06, 68.71 64.16 Q 68.73 64.26, 68.74 64.36 Q 68.75 64.45, 68.76 64.55 Q 68.77 64.65, 68.79 64.75 Q 68.80 64.84, 68.80 64.94 Q 68.80 65.04, 68.82 65.14 Q 68.85 65.23, 68.86 65.33 Q 68.87 65.43, 68.88 65.53 Q 68.90 65.62, 68.91 65.72 Q 68.92 65.82, 68.95 65.92 Q 68.97 66.02, 68.98 66.11 Q 68.99 66.21, 69.02 66.31 Q 69.04 66.41, 69.07 66.50 Q 69.09 66.60, 69.09 66.70 Q 69.09 66.80, 69.12 66.89 Q 69.14 66.99, 69.17 67.09 Q 69.19 67.19, 69.21 67.29 Q 69.24 67.38, 69.26 67.48 Q 69.29 67.58, 69.31 67.68 Q 69.34 67.77, 69.36 67.87 Q 69.38 67.97, 69.41 68.07 Q 69.43 68.16, 69.46 68.26 Q 69.48 68.36, 69.52 68.46 Q 69.56 68.55, 69.58 68.65 Q 69.60 68.75, 69.64 68.85 Q 69.68 68.95, 69.70 69.04 Q 69.73 69.14, 69.76 69.24 Q 69.80 69.34, 69.84 69.43 Q 69.87 69.53, 69.90 69.63 Q 69.92 69.73, 69.96 69.82 Q 70.00 69.92, 70.03 70.02 Q 70.07 70.12, 70.12 70.21 Q 70.17 70.31, 70.20 70.41 Q 70.24 70.51, 70.28 70.61 Q 70.31 70.70, 70.35 70.80 Q 70.39 70.90, 70.43 71.00 Q 70.48 71.09, 70.53 71.19 Q 70.58 71.29, 70.63 71.39 Q 70.68 71.48, 70.73 71.58 Q 70.78 71.68, 70.83 71.78 Q 70.87 71.88, 70.92 71.97 Q 70.97 72.07, 71.03 72.17 Q 71.09 72.27, 71.15 72.36 Q 71.22 72.46, 71.28 72.56 Q 71.34 72.66, 71.41 72.75 Q 71.48 72.85, 71.56 72.95 Q 71.63 73.05, 71.69 73.14 Q 71.75 73.24, 71.81 73.34 Q 71.88 73.44, 71.90 73.54 L 71.92 73.63" stroke-width="0.40"/>
    <path d="M 68.58 58.79 Q 68.60 58.98, 68.42 59.08 Q 68.24 59.18, 68.23 59.28 Q 68.21 59.38, 68.19 59.47 Q 68.16 59.57, 68.16 59.67 Q 68.16 59.77, 68.14 59.86 Q 68.12 59.96, 68.12 60.06 Q 68.12 60.16, 68.09 60.25 Q 68.07 60.35, 68.07 60.45 Q 68.07 60.55, 68.05 60.64 Q 68.04 60.74, 68.03 60.84 Q 68.02 60.94, 68.02 61.04 Q 68.02 61.13, 67.99 61.23 Q 67.97 61.33, 67.97 61.43 Q 67.97 61.52, 67.97 61.62 Q 67.97 61.72, 67.96 61.82 Q 67.94 61.91, 67.94 62.01 Q 67.94 62.11, 67.94 62.21 Q 67.94 62.30, 67.94 62.40 Q 67.94 62.50, 67.96 62.60 Q 67.97 62.70, 67.97 62.79 Q 67.97 62.89, 67.97 62.99 Q 67.97 63.09, 67.97 63.18 Q 67.97 63.28, 67.97 63.38 Q 67.97 63.48, 67.97 63.57 Q 67.97 63.67, 67.98 63.77 Q 67.99 63.87, 67.99 63.96 Q 67.99 64.06, 68.01 64.16 Q 68.02 64.26, 68.02 64.36 Q 68.02 64.45, 68.04 64.55 Q 68.07 64.65, 68.07 64.75 Q 68.07 64.84, 68.08 64.94 Q 68.09 65.04, 68.10 65.14 Q 68.12 65.23, 68.14 65.33 Q 68.16 65.43, 68.18 65.53 Q 68.19 65.62, 68.20 65.72 Q 68.21 65.82, 68.24 65.92 Q 68.26 66.02, 68.26 66.11 Q 68.26 66.21, 68.29 66.31 Q 68.31 66.41, 68.33 66.50 Q 68.36 66.60, 68.38 66.70 Q 68.41 66.80, 68.42 66.89 Q 68.43 66.99, 68.44 67.09 Q 68.46 67.19, 68.48 67.29 Q 68.51 67.38, 68.53 67.48 Q 68.55 67.58, 68.58 67.68 Q 68.60 67.77, 68.63 67.87 Q 68.65 67.97, 68.68 68.07 Q 68.70 68.16, 68.73 68.26 Q 68.75 68.36, 68.77 68.46 Q 68.80 68.55, 68.84 68.65 Q 68.87 68.75, 68.91 68.85 Q 68.95 68.95, 68.97 69.04 Q 68.99 69.14, 69.02 69.24 Q 69.04 69.34, 69.09 69.43 Q 69.14 69.53, 69.17 69.63 Q 69.19 69.73, 69.21 69.82 Q 69.24 69.92, 69.27 70.02 Q 69.31 70.12, 69.36 70.21 Q 69.41 70.31, 69.45 70.41 Q 69.48 70.51, 69.52 70.61 Q 69.56 70.70, 69.60 70.80 Q 69.65 70.90, 69.69 71.00 Q 69.73 71.09, 69.78 71.19 Q 69.82 71.29, 69.86 71.39 Q 69.90 71.48, 69.95 71.58 Q 70.00 71.68, 70.04 71.78 Q 70.09 71.88, 70.14 71.97 Q 70.19 72.07, 70.24 72.17 Q 70.29 72.27, 70.34 72.36 Q 70.39 72.46, 70.46 72.56 Q 70.53 72.66, 70.58 72.75 Q 70.63 72.85, 70.69 72.95 Q 70.75 73.05, 70.81 73.14 Q 70.87 73.24, 70.94 73.34 Q 71.00 73.44, 71.07 73.54 Q 71.14 73.63, 71.35 73.73 Q 71.56 73.83, 71.57 73.93 L 71.58 74.02" stroke-width="0.40"/>
  </g>
  
  <!-- MAGENTA: Gefuellte Polygone -->
  <g fill="#ff00cc" stroke="none" filter="url(#glow-magenta)">
    <path d="M 72.66 30.08 L 72.75 30.27 L 73.00 30.47 L 73.05 30.66 L 73.19 30.86 L 73.25 31.05 L 73.28 31.05 L 73.19 30.86 L 73.05 30.66 L 73.00 30.47 L 72.75 30.27 L 72.66 30.08 Z"/>
    <path d="M 63.11 52.34 L 63.20 52.54 L 63.30 52.73 L 63.41 52.93 L 63.51 53.12 L 63.64 53.32 L 63.75 53.52 L 63.90 53.71 L 64.04 53.91 L 64.20 54.10 L 64.36 54.30 L 64.49 54.49 L 64.68 54.69 L 64.83 54.88 L 65.00 55.08 L 65.20 55.27 L 65.45 55.47 L 65.62 55.66 L 65.87 55.86 L 66.12 56.05 L 66.38 56.25 L 66.69 56.45 L 67.07 56.64 L 67.43 56.84 L 68.02 56.84 L 67.60 56.64 L 67.10 56.45 L 66.73 56.25 L 66.45 56.05 L 66.16 55.86 L 65.92 55.66 L 65.80 55.47 L 65.52 55.27 L 65.32 55.08 L 65.10 54.88 L 64.91 54.69 L 64.76 54.49 L 64.65 54.30 L 64.46 54.10 L 64.28 53.91 L 64.13 53.71 L 63.98 53.52 L 63.85 53.32 L 63.74 53.12 L 63.64 52.93 L 63.51 52.73 L 63.41 52.54 L 63.31 52.34 Z"/>
    <path d="M 62.69 51.95 L 62.57 52.15 L 62.36 52.34 L 62.37 52.54 L 62.42 52.73 L 62.52 52.93 L 62.63 53.12 L 62.76 53.32 L 62.87 53.52 L 62.98 53.71 L 63.12 53.91 L 63.26 54.10 L 63.41 54.30 L 63.51 54.49 L 63.66 54.69 L 63.85 54.88 L 63.99 55.08 L 64.11 55.27 L 64.31 55.47 L 64.50 55.66 L 64.74 55.86 L 64.94 56.05 L 65.14 56.25 L 65.39 56.45 L 65.63 56.64 L 65.94 56.84 L 66.19 57.03 L 66.54 57.23 L 66.95 57.23 L 66.57 57.03 L 66.29 56.84 L 65.96 56.64 L 65.71 56.45 L 65.43 56.25 L 65.23 56.05 L 65.00 55.86 L 64.79 55.66 L 64.60 55.47 L 64.40 55.27 L 64.23 55.08 L 64.08 54.88 L 63.93 54.69 L 63.74 54.49 L 63.64 54.30 L 63.50 54.10 L 63.35 53.91 L 63.24 53.71 L 63.11 53.52 L 62.97 53.32 L 62.86 53.12 L 62.72 52.93 L 62.63 52.73 L 62.58 52.54 L 62.54 52.34 L 63.07 52.15 L 62.95 51.95 Z"/>
    <path d="M 28.53 63.67 L 28.57 63.87 L 28.48 64.06 L 28.34 64.26 L 28.24 64.45 L 28.10 64.65 L 27.95 64.84 L 27.80 65.04 L 27.71 65.23 L 27.58 65.43 L 27.48 65.62 L 27.74 65.62 L 27.84 65.43 L 27.91 65.23 L 28.01 65.04 L 28.15 64.84 L 28.30 64.65 L 28.45 64.45 L 28.54 64.26 L 28.65 64.06 L 28.75 63.87 L 28.70 63.67 Z"/>
    <path d="M 28.12 63.48 L 27.91 63.67 L 27.71 63.87 L 27.57 64.06 L 27.42 64.26 L 27.28 64.45 L 27.14 64.65 L 27.03 64.84 L 26.92 65.04 L 26.79 65.23 L 26.68 65.43 L 26.54 65.62 L 26.45 65.82 L 26.35 66.02 L 26.58 66.02 L 26.68 65.82 L 26.78 65.62 L 26.88 65.43 L 27.02 65.23 L 27.13 65.04 L 27.27 64.84 L 27.40 64.65 L 27.51 64.45 L 27.66 64.26 L 27.80 64.06 L 27.95 63.87 L 28.14 63.67 L 28.53 63.48 Z"/>
  </g>
  
  <!-- MAGENTA: Offene Linien (Stroke) -->
  <g fill="none" stroke="#ff00cc" stroke-linecap="round" stroke-linejoin="round" filter="url(#glow-magenta)">
    <path d="M 72.39 29.10 Q 72.66 29.30, 72.74 29.39 Q 72.83 29.49, 72.91 29.59 Q 73.00 29.69, 73.07 29.79 Q 73.14 29.88, 73.16 29.98 Q 73.17 30.08, 73.23 30.18 Q 73.29 30.27, 73.34 30.37 Q 73.39 30.47, 73.43 30.57 Q 73.46 30.66, 73.54 30.76 Q 73.61 30.86, 73.63 30.96 Q 73.66 31.05, 73.68 31.15 Q 73.71 31.25, 73.78 31.35 Q 73.85 31.45, 73.91 31.54 Q 73.97 31.64, 74.02 31.74 Q 74.07 31.84, 74.13 31.93 Q 74.19 32.03, 74.21 32.13 Q 74.22 32.23, 74.26 32.32 Q 74.29 32.42, 74.33 32.52 Q 74.37 32.62, 74.40 32.71 Q 74.44 32.81, 74.46 32.91 Q 74.49 33.01, 74.54 33.11 Q 74.58 33.20, 74.61 33.30 Q 74.63 33.40, 74.66 33.50 Q 74.68 33.59, 74.71 33.69 Q 74.73 33.79, 74.77 33.89 Q 74.80 33.98, 74.83 34.08 Q 74.85 34.18, 74.87 34.28 Q 74.88 34.38, 74.90 34.47 Q 74.93 34.57, 74.95 34.67 Q 74.98 34.77, 74.99 34.86 Q 75.00 34.96, 75.02 35.06 Q 75.05 35.16, 75.07 35.25 Q 75.10 35.35, 75.12 35.45 Q 75.15 35.55, 75.16 35.64 Q 75.17 35.74, 75.18 35.84 Q 75.20 35.94, 75.21 36.04 Q 75.22 36.13, 75.23 36.23 Q 75.24 36.33, 75.26 36.43 Q 75.27 36.52, 75.29 36.62 Q 75.32 36.72, 75.33 36.82 Q 75.34 36.91, 75.35 37.01 Q 75.37 37.11, 75.39 37.21 Q 75.42 37.30, 75.42 37.40 Q 75.42 37.50, 75.44 37.60 Q 75.46 37.70, 75.46 37.79 Q 75.46 37.89, 75.48 37.99 Q 75.49 38.09, 75.49 38.18 Q 75.49 38.28, 75.50 38.38 Q 75.51 38.48, 75.51 38.57 Q 75.51 38.67, 75.52 38.77 Q 75.54 38.87, 75.54 38.96 Q 75.54 39.06, 75.54 39.16 Q 75.54 39.26, 75.54 39.36 Q 75.54 39.45, 75.54 39.55 Q 75.54 39.65, 75.54 39.75 Q 75.54 39.84, 75.52 39.94 Q 75.51 40.04, 75.51 40.14 Q 75.51 40.23, 75.51 40.33 Q 75.51 40.43, 75.50 40.53 Q 75.49 40.62, 75.49 40.72 Q 75.49 40.82, 75.48 40.92 Q 75.46 41.02, 75.46 41.11 Q 75.46 41.21, 75.45 41.31 Q 75.44 41.41, 75.43 41.50 Q 75.42 41.60, 75.39 41.70 Q 75.37 41.80, 75.38 41.89 Q 75.39 41.99, 75.37 42.09 Q 75.34 42.19, 75.34 42.29 Q 75.34 42.38, 75.32 42.48 Q 75.29 42.58, 75.29 42.68 Q 75.29 42.77, 75.27 42.87 Q 75.24 42.97, 75.22 43.07 Q 75.20 43.16, 75.18 43.26 Q 75.17 43.36, 75.16 43.46 Q 75.15 43.55, 75.12 43.65 Q 75.10 43.75, 75.07 43.85 Q 75.05 43.95, 75.01 44.04 Q 74.98 44.14, 74.96 44.24 Q 74.95 44.34, 74.91 44.43 Q 74.88 44.53, 74.85 44.63 Q 74.83 44.73, 74.80 44.82 Q 74.78 44.92, 74.76 45.02 Q 74.73 45.12, 74.71 45.21 Q 74.68 45.31, 74.66 45.41 Q 74.63 45.51, 74.60 45.61 Q 74.56 45.70, 74.52 45.80 Q 74.49 45.90, 74.46 46.00 Q 74.44 46.09, 74.39 46.19 Q 74.34 46.29, 74.32 46.39 Q 74.29 46.48, 74.23 46.58 Q 74.17 46.68, 74.15 46.78 Q 74.12 46.88, 74.07 46.97 Q 74.02 47.07, 74.00 47.17 Q 73.97 47.27, 73.94 47.36 Q 73.90 47.46, 73.85 47.56 Q 73.80 47.66, 73.77 47.75 Q 73.73 47.85, 73.69 47.95 Q 73.66 48.05, 73.61 48.14 Q 73.56 48.24, 73.54 48.34 Q 73.51 48.44, 73.45 48.54 Q 73.39 48.63, 73.35 48.73 Q 73.32 48.83, 73.29 48.93 Q 73.27 49.02, 73.23 49.12 Q 73.19 49.22, 73.16 49.32 Q 73.12 49.41, 73.10 49.51 Q 73.07 49.61, 73.03 49.71 Q 73.00 49.80, 72.96 49.90 Q 72.92 50.00, 72.90 50.10 Q 72.88 50.20, 72.85 50.29 Q 72.83 50.39, 72.78 50.49 Q 72.73 50.59, 72.71 50.68 Q 72.68 50.78, 72.66 50.88 Q 72.63 50.98, 72.61 51.07 Q 72.58 51.17, 72.56 51.27 Q 72.53 51.37, 72.53 51.46 Q 72.53 51.56, 72.51 51.66 Q 72.49 51.76, 72.46 51.86 Q 72.44 51.95, 72.44 52.05 Q 72.44 52.15, 72.42 52.25 Q 72.41 52.34, 72.39 52.44 Q 72.36 52.54, 72.35 52.64 Q 72.34 52.73, 72.34 52.83 Q 72.34 52.93, 72.33 53.03 Q 72.31 53.12, 72.30 53.22 Q 72.29 53.32, 72.27 53.42 Q 72.24 53.52, 72.24 53.61 Q 72.24 53.71, 72.23 53.81 Q 72.22 53.91, 72.19 54.00 Q 72.17 54.10, 72.16 54.20 Q 72.14 54.30, 72.12 54.39 Q 72.09 54.49, 72.07 54.59 Q 72.05 54.69, 72.00 54.79 Q 71.95 54.88, 71.92 54.98 Q 71.90 55.08, 71.85 55.18 Q 71.80 55.27, 71.75 55.37 Q 71.70 55.47, 71.66 55.57 Q 71.61 55.66, 71.55 55.76 Q 71.48 55.86, 71.40 55.96 Q 71.31 56.05, 71.23 56.15 Q 71.14 56.25, 71.02 56.35 Q 70.90 56.45, 70.74 56.54 Q 70.58 56.64, 70.50 56.74 Q 70.41 56.84, 69.75 56.93 Q 69.09 57.03, 69.15 57.13 Q 69.21 57.23, 68.18 57.32 Q 67.14 57.42, 67.41 57.52 L 67.68 57.62" stroke-width="0.40"/>
    <path d="M 72.02 27.93 Q 70.41 28.12, 70.28 28.22 Q 70.14 28.32, 71.51 28.42 Q 72.88 28.52, 73.00 28.61 Q 73.12 28.71, 73.22 28.81 Q 73.32 28.91, 73.41 29.00 Q 73.51 29.10, 73.60 29.20 Q 73.68 29.30, 73.75 29.39 Q 73.83 29.49, 73.88 29.59 Q 73.93 29.69, 74.00 29.79 Q 74.07 29.88, 74.11 29.98 Q 74.15 30.08, 74.19 30.18 Q 74.24 30.27, 74.29 30.37 Q 74.34 30.47, 74.39 30.57 Q 74.44 30.66, 74.48 30.76 Q 74.51 30.86, 74.55 30.96 Q 74.58 31.05, 74.63 31.15 Q 74.68 31.25, 74.71 31.35 Q 74.73 31.45, 74.78 31.54 Q 74.83 31.64, 74.87 31.74 Q 74.90 31.84, 74.94 31.93 Q 74.98 32.03, 75.01 32.13 Q 75.05 32.23, 75.09 32.32 Q 75.12 32.42, 75.15 32.52 Q 75.17 32.62, 75.21 32.71 Q 75.24 32.81, 75.28 32.91 Q 75.32 33.01, 75.35 33.11 Q 75.39 33.20, 75.40 33.30 Q 75.42 33.40, 75.45 33.50 Q 75.49 33.59, 75.50 33.69 Q 75.51 33.79, 75.54 33.89 Q 75.56 33.98, 75.59 34.08 Q 75.61 34.18, 75.63 34.28 Q 75.66 34.38, 75.68 34.47 Q 75.71 34.57, 75.72 34.67 Q 75.73 34.77, 75.76 34.86 Q 75.78 34.96, 75.82 35.06 Q 75.85 35.16, 75.87 35.25 Q 75.88 35.35, 75.89 35.45 Q 75.90 35.55, 75.93 35.64 Q 75.95 35.74, 75.96 35.84 Q 75.98 35.94, 75.98 36.04 Q 75.98 36.13, 76.00 36.23 Q 76.03 36.33, 76.05 36.43 Q 76.07 36.52, 76.07 36.62 Q 76.07 36.72, 76.10 36.82 Q 76.12 36.91, 76.12 37.01 Q 76.12 37.11, 76.14 37.21 Q 76.15 37.30, 76.16 37.40 Q 76.17 37.50, 76.17 37.60 Q 76.17 37.70, 76.18 37.79 Q 76.20 37.89, 76.22 37.99 Q 76.25 38.09, 76.26 38.18 Q 76.27 38.28, 76.27 38.38 Q 76.27 38.48, 76.26 38.57 Q 76.25 38.67, 76.26 38.77 Q 76.27 38.87, 76.28 38.96 Q 76.29 39.06, 76.29 39.16 Q 76.29 39.26, 76.29 39.36 Q 76.29 39.45, 76.29 39.55 Q 76.29 39.65, 76.29 39.75 Q 76.29 39.84, 76.28 39.94 Q 76.27 40.04, 76.27 40.14 Q 76.27 40.23, 76.27 40.33 Q 76.27 40.43, 76.26 40.53 Q 76.25 40.62, 76.23 40.72 Q 76.22 40.82, 76.22 40.92 Q 76.22 41.02, 76.22 41.11 Q 76.22 41.21, 76.20 41.31 Q 76.17 41.41, 76.17 41.50 Q 76.17 41.60, 76.16 41.70 Q 76.15 41.80, 76.15 41.89 Q 76.15 41.99, 76.14 42.09 Q 76.12 42.19, 76.11 42.29 Q 76.10 42.38, 76.09 42.48 Q 76.07 42.58, 76.06 42.68 Q 76.05 42.77, 76.05 42.87 Q 76.05 42.97, 76.03 43.07 Q 76.00 43.16, 75.98 43.26 Q 75.95 43.36, 75.93 43.46 Q 75.90 43.55, 75.88 43.65 Q 75.85 43.75, 75.83 43.85 Q 75.81 43.95, 75.78 44.04 Q 75.76 44.14, 75.73 44.24 Q 75.71 44.34, 75.68 44.43 Q 75.66 44.53, 75.63 44.63 Q 75.61 44.73, 75.60 44.82 Q 75.59 44.92, 75.55 45.02 Q 75.51 45.12, 75.49 45.21 Q 75.46 45.31, 75.44 45.41 Q 75.42 45.51, 75.39 45.61 Q 75.37 45.70, 75.33 45.80 Q 75.29 45.90, 75.24 46.00 Q 75.20 46.09, 75.16 46.19 Q 75.12 46.29, 75.10 46.39 Q 75.07 46.48, 75.05 46.58 Q 75.02 46.68, 74.99 46.78 Q 74.95 46.88, 74.91 46.97 Q 74.88 47.07, 74.83 47.17 Q 74.78 47.27, 74.74 47.36 Q 74.71 47.46, 74.67 47.56 Q 74.63 47.66, 74.58 47.75 Q 74.54 47.85, 74.52 47.95 Q 74.51 48.05, 74.45 48.14 Q 74.39 48.24, 74.35 48.34 Q 74.32 48.44, 74.28 48.54 Q 74.24 48.63, 74.19 48.73 Q 74.15 48.83, 74.12 48.93 Q 74.10 49.02, 74.06 49.12 Q 74.02 49.22, 73.97 49.32 Q 73.93 49.41, 73.89 49.51 Q 73.85 49.61, 73.83 49.71 Q 73.80 49.80, 73.75 49.90 Q 73.71 50.00, 73.68 50.10 Q 73.66 50.20, 73.62 50.29 Q 73.58 50.39, 73.55 50.49 Q 73.51 50.59, 73.49 50.68 Q 73.46 50.78, 73.44 50.88 Q 73.41 50.98, 73.39 51.07 Q 73.36 51.17, 73.34 51.27 Q 73.32 51.37, 73.32 51.46 Q 73.32 51.56, 73.28 51.66 Q 73.24 51.76, 73.23 51.86 Q 73.22 51.95, 73.21 52.05 Q 73.19 52.15, 73.17 52.25 Q 73.14 52.34, 73.14 52.44 Q 73.14 52.54, 73.12 52.64 Q 73.10 52.73, 73.10 52.83 Q 73.10 52.93, 73.08 53.03 Q 73.07 53.12, 73.06 53.22 Q 73.05 53.32, 73.03 53.42 Q 73.02 53.52, 73.01 53.61 Q 73.00 53.71, 72.97 53.81 Q 72.95 53.91, 72.94 54.00 Q 72.92 54.10, 72.91 54.20 Q 72.90 54.30, 72.88 54.39 Q 72.85 54.49, 72.84 54.59 Q 72.83 54.69, 72.78 54.79 Q 72.73 54.88, 72.71 54.98 Q 72.68 55.08, 72.66 55.18 Q 72.63 55.27, 72.58 55.37 Q 72.53 55.47, 72.50 55.57 Q 72.46 55.66, 72.41 55.76 Q 72.36 55.86, 72.30 55.96 Q 72.24 56.05, 72.18 56.15 Q 72.12 56.25, 72.05 56.35 Q 71.97 56.45, 71.90 56.54 Q 71.83 56.64, 71.74 56.74 Q 71.66 56.84, 71.57 56.93 Q 71.48 57.03, 71.39 57.13 Q 71.29 57.23, 71.13 57.32 Q 70.97 57.42, 70.76 57.52 Q 70.56 57.62, 69.85 57.71 Q 69.14 57.81, 69.18 57.91 L 69.21 58.01" stroke-width="0.40"/>
    <path d="M 29.10 54.88 Q 29.32 55.08, 30.03 55.18 Q 30.74 55.27, 31.09 55.37 Q 31.45 55.47, 31.76 55.57 Q 32.08 55.66, 32.34 55.76 Q 32.59 55.86, 32.87 55.96 Q 33.15 56.05, 33.37 56.15 Q 33.59 56.25, 33.81 56.35 Q 34.03 56.45, 34.22 56.54 Q 34.40 56.64, 34.53 56.74 Q 34.67 56.84, 34.84 56.93 Q 35.01 57.03, 35.18 57.13 Q 35.35 57.23, 35.46 57.32 Q 35.57 57.42, 35.71 57.52 Q 35.84 57.62, 35.95 57.71 Q 36.06 57.81, 36.17 57.91 Q 36.28 58.01, 36.36 58.11 Q 36.45 58.20, 36.54 58.30 Q 36.62 58.40, 36.71 58.50 Q 36.79 58.59, 36.87 58.69 Q 36.94 58.79, 37.01 58.89 Q 37.08 58.98, 37.16 59.08 Q 37.23 59.18, 37.29 59.28 Q 37.35 59.38, 37.40 59.47 Q 37.45 59.57, 37.48 59.67 Q 37.50 59.77, 37.60 59.86 Q 37.70 59.96, 37.77 60.06 L 37.84 60.16" stroke-width="0.47"/>
    <path d="M 29.15 54.10 Q 29.20 54.30, 29.98 54.39 Q 30.76 54.49, 31.14 54.59 Q 31.52 54.69, 31.81 54.79 Q 32.10 54.88, 32.39 54.98 Q 32.67 55.08, 32.93 55.18 Q 33.20 55.27, 33.44 55.37 Q 33.67 55.47, 33.90 55.57 Q 34.13 55.66, 34.34 55.76 Q 34.55 55.86, 34.78 55.96 Q 35.01 56.05, 35.13 56.15 Q 35.25 56.25, 35.41 56.35 Q 35.57 56.45, 35.71 56.54 Q 35.84 56.64, 35.97 56.74 Q 36.11 56.84, 36.22 56.93 Q 36.33 57.03, 36.43 57.13 Q 36.52 57.23, 36.63 57.32 Q 36.74 57.42, 36.84 57.52 Q 36.94 57.62, 37.02 57.71 Q 37.11 57.81, 37.19 57.91 Q 37.28 58.01, 37.38 58.11 Q 37.48 58.20, 37.57 58.30 Q 37.67 58.40, 37.72 58.50 Q 37.77 58.59, 37.83 58.69 Q 37.89 58.79, 37.96 58.89 Q 38.04 58.98, 38.11 59.08 Q 38.18 59.18, 38.23 59.28 Q 38.28 59.38, 38.33 59.47 Q 38.38 59.57, 38.43 59.67 Q 38.48 59.77, 38.56 59.86 Q 38.65 59.96, 38.70 60.06 Q 38.75 60.16, 38.35 60.25 Q 37.96 60.35, 38.01 60.45 Q 38.06 60.55, 38.09 60.64 Q 38.11 60.74, 38.16 60.84 Q 38.21 60.94, 38.23 61.04 Q 38.26 61.13, 38.29 61.23 Q 38.33 61.33, 38.37 61.43 L 38.40 61.52" stroke-width="0.40"/>
    <path d="M 71.75 28.71 Q 71.70 28.91, 71.47 29.00 Q 71.24 29.10, 71.04 29.20 Q 70.85 29.30, 70.56 29.39 Q 70.26 29.49, 70.08 29.59 Q 69.90 29.69, 69.67 29.79 Q 69.43 29.88, 69.24 29.98 Q 69.04 30.08, 68.84 30.18 Q 68.63 30.27, 68.41 30.37 Q 68.19 30.47, 67.92 30.57 Q 67.65 30.66, 67.35 30.76 Q 67.04 30.86, 66.72 30.96 Q 66.41 31.05, 66.08 31.15 Q 65.75 31.25, 65.39 31.35 Q 65.04 31.45, 64.70 31.54 Q 64.36 31.64, 63.88 31.74 Q 63.40 31.84, 62.83 31.93 Q 62.26 32.03, 61.67 32.13 Q 61.08 32.23, 60.29 32.32 Q 59.50 32.42, 58.83 32.52 Q 58.15 32.62, 57.31 32.71 Q 56.47 32.81, 55.80 32.91 Q 55.13 33.01, 54.64 33.11 Q 54.15 33.20, 53.65 33.30 Q 53.15 33.40, 52.83 33.50 Q 52.51 33.59, 52.25 33.69 Q 51.98 33.79, 51.77 33.89 Q 51.56 33.98, 51.37 34.08 Q 51.17 34.18, 51.06 34.28 Q 50.95 34.38, 50.84 34.47 Q 50.73 34.57, 50.65 34.67 Q 50.56 34.77, 50.48 34.86 Q 50.39 34.96, 50.34 35.06 Q 50.29 35.16, 50.24 35.25 Q 50.20 35.35, 50.17 35.45 Q 50.15 35.55, 50.12 35.64 Q 50.10 35.74, 50.07 35.84 Q 50.05 35.94, 50.07 36.04 Q 50.10 36.13, 50.12 36.23 Q 50.15 36.33, 50.16 36.43 Q 50.17 36.52, 50.16 36.62 Q 50.15 36.72, 50.18 36.82 Q 50.22 36.91, 50.21 37.01 Q 50.20 37.11, 50.21 37.21 Q 50.22 37.30, 50.26 37.40 Q 50.29 37.50, 50.32 37.60 Q 50.34 37.70, 50.39 37.79 Q 50.44 37.89, 50.48 37.99 Q 50.51 38.09, 50.57 38.18 Q 50.63 38.28, 50.71 38.38 Q 50.78 38.48, 50.84 38.57 Q 50.90 38.67, 50.98 38.77 Q 51.05 38.87, 51.11 38.96 Q 51.17 39.06, 51.23 39.16 Q 51.29 39.26, 51.34 39.36 Q 51.39 39.45, 51.45 39.55 Q 51.51 39.65, 51.56 39.75 Q 51.61 39.84, 51.66 39.94 Q 51.71 40.04, 51.76 40.14 Q 51.81 40.23, 51.84 40.33 Q 51.88 40.43, 51.93 40.53 Q 51.98 40.62, 52.00 40.72 Q 52.03 40.82, 52.06 40.92 Q 52.10 41.02, 52.14 41.11 Q 52.17 41.21, 52.21 41.31 Q 52.25 41.41, 52.27 41.50 Q 52.29 41.60, 52.31 41.70 Q 52.32 41.80, 52.34 41.89 Q 52.37 41.99, 52.39 42.09 Q 52.42 42.19, 52.44 42.29 Q 52.47 42.38, 52.49 42.48 Q 52.51 42.58, 52.54 42.68 Q 52.56 42.77, 52.56 42.87 Q 52.56 42.97, 52.61 43.07 Q 52.66 43.16, 52.67 43.26 Q 52.69 43.36, 52.72 43.46 Q 52.76 43.55, 52.75 43.65 Q 52.73 43.75, 52.78 43.85 Q 52.83 43.95, 52.77 44.04 Q 52.71 44.14, 52.72 44.24 Q 52.73 44.34, 52.73 44.43 Q 52.73 44.53, 52.73 44.63 Q 52.73 44.73, 52.73 44.82 Q 52.73 44.92, 52.73 45.02 Q 52.73 45.12, 52.73 45.21 Q 52.73 45.31, 52.73 45.41 Q 52.73 45.51, 52.73 45.61 Q 52.73 45.70, 52.73 45.80 Q 52.73 45.90, 52.75 46.00 Q 52.76 46.09, 52.76 46.19 Q 52.76 46.29, 52.75 46.39 Q 52.73 46.48, 52.72 46.58 Q 52.71 46.68, 52.72 46.78 Q 52.73 46.88, 52.72 46.97 Q 52.71 47.07, 52.69 47.17 Q 52.66 47.27, 52.66 47.36 Q 52.66 47.46, 52.69 47.56 Q 52.71 47.66, 52.70 47.75 Q 52.69 47.85, 52.62 47.95 Q 52.56 48.05, 52.54 48.14 Q 52.51 48.24, 52.49 48.34 Q 52.47 48.44, 52.44 48.54 Q 52.42 48.63, 52.39 48.73 Q 52.37 48.83, 52.34 48.93 Q 52.32 49.02, 52.28 49.12 Q 52.25 49.22, 52.22 49.32 Q 52.20 49.41, 52.16 49.51 Q 52.12 49.61, 52.10 49.71 Q 52.08 49.80, 52.08 49.90 Q 52.08 50.00, 52.04 50.10 Q 52.00 50.20, 51.93 50.29 Q 51.86 50.39, 51.81 50.49 Q 51.76 50.59, 51.71 50.68 Q 51.66 50.78, 51.61 50.88 Q 51.56 50.98, 51.50 51.07 Q 51.44 51.17, 51.39 51.27 Q 51.34 51.37, 51.28 51.46 Q 51.22 51.56, 51.17 51.66 Q 51.12 51.76, 51.06 51.86 Q 51.00 51.95, 50.94 52.05 Q 50.88 52.15, 50.82 52.25 Q 50.76 52.34, 50.66 52.44 Q 50.56 52.54, 50.49 52.64 Q 50.42 52.73, 50.34 52.83 Q 50.27 52.93, 50.17 53.03 Q 50.07 53.12, 49.99 53.22 Q 49.90 53.32, 49.82 53.42 Q 49.73 53.52, 49.63 53.61 Q 49.54 53.71, 49.44 53.81 Q 49.34 53.91, 49.24 54.00 Q 49.15 54.10, 49.04 54.20 Q 48.93 54.30, 48.80 54.39 Q 48.68 54.49, 48.56 54.59 Q 48.44 54.69, 48.32 54.79 Q 48.19 54.88, 48.05 54.98 Q 47.90 55.08, 47.75 55.18 Q 47.61 55.27, 47.46 55.37 Q 47.31 55.47, 47.17 55.57 Q 47.02 55.66, 46.86 55.76 Q 46.70 55.86, 46.53 55.96 Q 46.36 56.05, 46.18 56.15 Q 46.00 56.25, 45.80 56.35 Q 45.61 56.45, 45.42 56.54 Q 45.24 56.64, 45.04 56.74 Q 44.85 56.84, 44.68 56.93 Q 44.51 57.03, 44.32 57.13 Q 44.14 57.23, 43.96 57.32 Q 43.77 57.42, 43.64 57.52 Q 43.51 57.62, 43.32 57.71 Q 43.14 57.81, 42.97 57.91 Q 42.80 58.01, 42.66 58.11 Q 42.53 58.20, 42.38 58.30 Q 42.24 58.40, 42.11 58.50 Q 41.99 58.59, 41.89 58.69 Q 41.80 58.79, 41.70 58.89 Q 41.60 58.98, 41.50 59.08 Q 41.41 59.18, 41.32 59.28 Q 41.24 59.38, 41.16 59.47 Q 41.09 59.57, 41.02 59.67 Q 40.94 59.77, 40.87 59.86 Q 40.80 59.96, 40.72 60.06 Q 40.65 60.16, 40.59 60.25 Q 40.53 60.35, 40.47 60.45 Q 40.41 60.55, 40.36 60.64 Q 40.31 60.74, 40.26 60.84 Q 40.21 60.94, 40.16 61.04 Q 40.11 61.13, 40.08 61.23 Q 40.04 61.33, 39.99 61.43 Q 39.94 61.52, 39.22 61.62 L 38.50 61.72" stroke-width="0.40"/>
    <path d="M 71.83 27.93 Q 71.61 28.12, 71.26 28.22 Q 70.92 28.32, 70.68 28.42 Q 70.43 28.52, 70.25 28.61 Q 70.07 28.71, 69.89 28.81 Q 69.70 28.91, 69.51 29.00 Q 69.31 29.10, 69.12 29.20 Q 68.92 29.30, 68.70 29.39 Q 68.48 29.49, 68.23 29.59 Q 67.97 29.69, 67.74 29.79 Q 67.50 29.88, 67.25 29.98 Q 66.99 30.08, 66.69 30.18 Q 66.38 30.27, 66.08 30.37 Q 65.77 30.47, 65.39 30.57 Q 65.01 30.66, 64.64 30.76 Q 64.26 30.86, 63.78 30.96 Q 63.31 31.05, 62.76 31.15 Q 62.21 31.25, 61.65 31.35 Q 61.08 31.45, 60.44 31.54 Q 59.79 31.64, 58.91 31.74 Q 58.03 31.84, 57.36 31.93 Q 56.69 32.03, 55.98 32.13 Q 55.27 32.23, 54.70 32.32 Q 54.13 32.42, 53.64 32.52 Q 53.15 32.62, 52.77 32.71 Q 52.39 32.81, 52.11 32.91 Q 51.83 33.01, 51.61 33.11 Q 51.39 33.20, 51.20 33.30 Q 51.00 33.40, 50.84 33.50 Q 50.68 33.59, 50.56 33.69 Q 50.44 33.79, 50.34 33.89 Q 50.24 33.98, 50.13 34.08 Q 50.02 34.18, 49.96 34.28 Q 49.90 34.38, 49.83 34.47 Q 49.76 34.57, 49.71 34.67 Q 49.66 34.77, 49.62 34.86 Q 49.58 34.96, 49.54 35.06 Q 49.49 35.16, 49.45 35.25 Q 49.41 35.35, 49.39 35.45 Q 49.37 35.55, 49.35 35.64 Q 49.34 35.74, 49.32 35.84 Q 49.29 35.94, 49.29 36.04 Q 49.29 36.13, 49.29 36.23 Q 49.29 36.33, 49.29 36.43 Q 49.29 36.52, 49.29 36.62 Q 49.29 36.72, 49.30 36.82 Q 49.32 36.91, 49.34 37.01 Q 49.37 37.11, 49.38 37.21 Q 49.39 37.30, 49.43 37.40 Q 49.46 37.50, 49.49 37.60 Q 49.51 37.70, 49.55 37.79 Q 49.58 37.89, 49.63 37.99 Q 49.68 38.09, 49.73 38.18 Q 49.78 38.28, 49.84 38.38 Q 49.90 38.48, 49.95 38.57 Q 50.00 38.67, 50.06 38.77 Q 50.12 38.87, 50.18 38.96 Q 50.24 39.06, 50.32 39.16 Q 50.39 39.26, 50.46 39.36 Q 50.54 39.45, 50.59 39.55 Q 50.63 39.65, 50.68 39.75 Q 50.73 39.84, 50.71 39.94 Q 50.68 40.04, 50.81 40.14 Q 50.93 40.23, 50.95 40.33 Q 50.98 40.43, 51.05 40.53 Q 51.12 40.62, 51.17 40.72 Q 51.22 40.82, 51.26 40.92 Q 51.29 41.02, 51.33 41.11 Q 51.37 41.21, 51.40 41.31 Q 51.44 41.41, 51.48 41.50 Q 51.51 41.60, 51.55 41.70 Q 51.59 41.80, 51.61 41.89 Q 51.64 41.99, 51.66 42.09 Q 51.68 42.19, 51.71 42.29 Q 51.73 42.38, 51.76 42.48 Q 51.78 42.58, 51.79 42.68 Q 51.81 42.77, 51.82 42.87 Q 51.83 42.97, 51.84 43.07 Q 51.86 43.16, 51.87 43.26 Q 51.88 43.36, 51.89 43.46 Q 51.90 43.55, 51.92 43.65 Q 51.93 43.75, 51.94 43.85 Q 51.95 43.95, 51.94 44.04 Q 51.93 44.14, 51.95 44.24 Q 51.98 44.34, 51.98 44.43 Q 51.98 44.53, 51.98 44.63 Q 51.98 44.73, 51.98 44.82 Q 51.98 44.92, 51.99 45.02 Q 52.00 45.12, 52.01 45.21 Q 52.03 45.31, 52.03 45.41 Q 52.03 45.51, 52.03 45.61 Q 52.03 45.70, 52.01 45.80 Q 52.00 45.90, 52.00 46.00 Q 52.00 46.09, 52.00 46.19 Q 52.00 46.29, 51.99 46.39 Q 51.98 46.48, 51.97 46.58 Q 51.95 46.68, 51.95 46.78 Q 51.95 46.88, 51.94 46.97 Q 51.93 47.07, 51.92 47.17 Q 51.90 47.27, 51.90 47.36 Q 51.90 47.46, 51.88 47.56 Q 51.86 47.66, 51.84 47.75 Q 51.83 47.85, 51.81 47.95 Q 51.78 48.05, 51.76 48.14 Q 51.73 48.24, 51.73 48.34 Q 51.73 48.44, 51.68 48.54 Q 51.64 48.63, 51.61 48.73 Q 51.59 48.83, 51.55 48.93 Q 51.51 49.02, 51.48 49.12 Q 51.44 49.22, 51.40 49.32 Q 51.37 49.41, 51.34 49.51 Q 51.32 49.61, 51.26 49.71 Q 51.20 49.80, 51.20 49.90 Q 51.20 50.00, 51.15 50.10 Q 51.10 50.20, 51.06 50.29 Q 51.03 50.39, 50.99 50.49 Q 50.95 50.59, 50.90 50.68 Q 50.85 50.78, 50.78 50.88 Q 50.71 50.98, 50.65 51.07 Q 50.59 51.17, 50.54 51.27 Q 50.49 51.37, 50.42 51.46 Q 50.34 51.56, 50.23 51.66 Q 50.12 51.76, 50.07 51.86 Q 50.02 51.95, 49.98 52.05 Q 49.93 52.15, 49.84 52.25 Q 49.76 52.34, 49.67 52.44 Q 49.58 52.54, 49.51 52.64 Q 49.44 52.73, 49.34 52.83 Q 49.24 52.93, 49.15 53.03 Q 49.05 53.12, 48.94 53.22 Q 48.83 53.32, 48.73 53.42 Q 48.63 53.52, 48.52 53.61 Q 48.41 53.71, 48.30 53.81 Q 48.19 53.91, 48.08 54.00 Q 47.97 54.10, 47.84 54.20 Q 47.71 54.30, 47.58 54.39 Q 47.46 54.49, 47.30 54.59 Q 47.14 54.69, 47.00 54.79 Q 46.85 54.88, 46.68 54.98 Q 46.51 55.08, 46.33 55.18 Q 46.14 55.27, 45.98 55.37 Q 45.83 55.47, 45.67 55.57 Q 45.51 55.66, 45.31 55.76 Q 45.12 55.86, 44.93 55.96 Q 44.75 56.05, 44.51 56.15 Q 44.26 56.25, 44.09 56.35 Q 43.92 56.45, 43.76 56.54 Q 43.60 56.64, 43.42 56.74 Q 43.24 56.84, 43.08 56.93 Q 42.92 57.03, 42.75 57.13 Q 42.58 57.23, 42.44 57.32 Q 42.31 57.42, 42.19 57.52 Q 42.07 57.62, 41.94 57.71 Q 41.82 57.81, 41.67 57.91 Q 41.53 58.01, 41.42 58.11 Q 41.31 58.20, 41.21 58.30 Q 41.11 58.40, 41.02 58.50 Q 40.92 58.59, 40.82 58.69 Q 40.72 58.79, 40.62 58.89 Q 40.53 58.98, 40.42 59.08 Q 40.31 59.18, 40.27 59.28 Q 40.23 59.38, 40.19 59.47 Q 40.14 59.57, 40.08 59.67 Q 40.01 59.77, 39.93 59.86 Q 39.84 59.96, 39.79 60.06 Q 39.75 60.16, 39.48 60.25 Q 39.21 60.35, 39.21 60.45 Q 39.21 60.55, 39.21 60.64 Q 39.21 60.74, 39.20 60.84 Q 39.18 60.94, 39.20 61.04 Q 39.21 61.13, 39.20 61.23 Q 39.18 61.33, 39.20 61.43 Q 39.21 61.52, 39.53 61.62 Q 39.84 61.72, 39.50 61.82 Q 39.16 61.91, 39.16 62.01 L 39.16 62.11" stroke-width="0.40"/>
    <path d="M 27.98 55.27 Q 27.73 55.47, 27.66 55.57 Q 27.59 55.66, 27.51 55.76 Q 27.44 55.86, 27.39 55.96 Q 27.34 56.05, 27.29 56.15 Q 27.25 56.25, 27.21 56.35 Q 27.17 56.45, 27.14 56.54 Q 27.10 56.64, 27.06 56.74 Q 27.03 56.84, 27.03 56.93 Q 27.03 57.03, 27.01 57.13 Q 27.00 57.23, 26.99 57.32 Q 26.98 57.42, 26.99 57.52 Q 27.00 57.62, 27.01 57.71 Q 27.03 57.81, 27.04 57.91 Q 27.05 58.01, 27.08 58.11 Q 27.10 58.20, 27.15 58.30 Q 27.20 58.40, 27.32 58.50 Q 27.44 58.59, 27.88 58.69 Q 28.32 58.79, 28.65 58.89 Q 28.98 58.98, 29.55 59.08 Q 30.13 59.18, 30.51 59.28 Q 30.88 59.38, 31.25 59.47 Q 31.62 59.57, 31.90 59.67 Q 32.18 59.77, 32.40 59.86 Q 32.62 59.96, 32.79 60.06 Q 32.96 60.16, 33.09 60.25 Q 33.23 60.35, 33.35 60.45 Q 33.47 60.55, 33.57 60.64 Q 33.67 60.74, 33.75 60.84 Q 33.84 60.94, 33.91 61.04 Q 33.98 61.13, 34.06 61.23 Q 34.13 61.33, 34.19 61.43 Q 34.25 61.52, 34.31 61.62 Q 34.38 61.72, 34.45 61.82 Q 34.52 61.91, 34.53 62.01 Q 34.55 62.11, 34.57 62.21 Q 34.59 62.30, 34.64 62.40 Q 34.69 62.50, 34.72 62.60 Q 34.74 62.70, 34.78 62.79 Q 34.81 62.89, 34.84 62.99 Q 34.86 63.09, 34.89 63.18 Q 34.91 63.28, 34.95 63.38 Q 34.99 63.48, 35.02 63.57 Q 35.06 63.67, 35.08 63.77 Q 35.11 63.87, 35.14 63.96 Q 35.18 64.06, 35.19 64.16 Q 35.21 64.26, 35.23 64.36 Q 35.25 64.45, 35.27 64.55 Q 35.28 64.65, 35.29 64.75 Q 35.30 64.84, 35.31 64.94 Q 35.33 65.04, 35.34 65.14 Q 35.35 65.23, 35.35 65.33 Q 35.35 65.43, 35.35 65.53 Q 35.35 65.62, 31.40 65.72 Q 27.44 65.82, 27.38 65.92 Q 27.32 66.02, 26.83 66.11 Q 26.34 66.21, 26.29 66.31 Q 26.25 66.41, 26.20 66.50 Q 26.15 66.60, 26.10 66.70 Q 26.05 66.80, 26.00 66.89 Q 25.95 66.99, 25.93 67.09 Q 25.90 67.19, 25.85 67.29 Q 25.81 67.38, 25.77 67.48 Q 25.73 67.58, 25.68 67.68 Q 25.63 67.77, 25.60 67.87 Q 25.56 67.97, 25.52 68.07 Q 25.49 68.16, 25.46 68.26 Q 25.44 68.36, 25.40 68.46 Q 25.37 68.55, 25.33 68.65 Q 25.29 68.75, 25.26 68.85 Q 25.22 68.95, 25.20 69.04 Q 25.17 69.14, 25.13 69.24 Q 25.10 69.34, 25.07 69.43 Q 25.05 69.53, 25.02 69.63 Q 25.00 69.73, 24.98 69.82 Q 24.95 69.92, 24.91 70.02 Q 24.88 70.12, 24.85 70.21 Q 24.83 70.31, 24.80 70.41 Q 24.78 70.51, 24.76 70.61 Q 24.73 70.70, 24.71 70.80 Q 24.68 70.90, 24.66 71.00 Q 24.63 71.09, 24.63 71.19 Q 24.63 71.29, 24.60 71.39 Q 24.56 71.48, 24.55 71.58 Q 24.54 71.68, 24.50 71.78 Q 24.46 71.88, 24.48 71.97 Q 24.49 72.07, 24.48 72.17 Q 24.46 72.27, 24.45 72.36 Q 24.44 72.46, 24.43 72.56 Q 24.41 72.66, 24.40 72.75 Q 24.39 72.85, 24.38 72.95 Q 24.37 73.05, 24.37 73.14 Q 24.37 73.24, 24.37 73.34 Q 24.37 73.44, 24.37 73.54 Q 24.37 73.63, 24.37 73.73 Q 24.37 73.83, 24.34 73.93 Q 24.32 74.02, 24.32 74.12 Q 24.32 74.22, 24.30 74.32 Q 24.29 74.41, 24.30 74.51 Q 24.32 74.61, 24.32 74.71 Q 24.32 74.80, 24.33 74.90 Q 24.34 75.00, 24.34 75.10 Q 24.34 75.20, 24.34 75.29 Q 24.34 75.39, 24.34 75.49 Q 24.34 75.59, 24.37 75.68 Q 24.39 75.78, 24.40 75.88 Q 24.41 75.98, 24.41 76.07 Q 24.41 76.17, 24.44 76.27 Q 24.46 76.37, 24.46 76.46 Q 24.46 76.56, 24.49 76.66 Q 24.51 76.76, 24.54 76.86 Q 24.56 76.95, 24.57 77.05 Q 24.58 77.15, 24.61 77.25 Q 24.63 77.34, 24.66 77.44 Q 24.68 77.54, 24.72 77.64 Q 24.76 77.73, 24.77 77.83 Q 24.78 77.93, 24.82 78.03 Q 24.85 78.12, 24.89 78.22 Q 24.93 78.32, 24.96 78.42 Q 25.00 78.52, 25.05 78.61 Q 25.10 78.71, 25.13 78.81 Q 25.17 78.91, 25.22 79.00 Q 25.27 79.10, 25.33 79.20 Q 25.39 79.30, 25.44 79.39 Q 25.49 79.49, 25.55 79.59 Q 25.61 79.69, 25.67 79.79 Q 25.73 79.88, 25.81 79.98 Q 25.88 80.08, 25.96 80.18 Q 26.05 80.27, 26.12 80.37 Q 26.20 80.47, 26.28 80.57 Q 26.37 80.66, 26.46 80.76 Q 26.56 80.86, 26.67 80.96 Q 26.78 81.05, 26.90 81.15 Q 27.03 81.25, 27.16 81.35 Q 27.29 81.45, 27.43 81.54 Q 27.56 81.64, 27.72 81.74 Q 27.88 81.84, 28.06 81.93 L 28.25 82.03" stroke-width="0.40"/>
    <path d="M 27.78 54.49 Q 27.49 54.69, 27.39 54.79 Q 27.29 54.88, 27.20 54.98 Q 27.10 55.08, 27.03 55.18 Q 26.95 55.27, 26.88 55.37 Q 26.81 55.47, 26.76 55.57 Q 26.71 55.66, 26.67 55.76 Q 26.64 55.86, 26.57 55.96 Q 26.51 56.05, 26.48 56.15 Q 26.44 56.25, 26.39 56.35 Q 26.34 56.45, 26.33 56.54 Q 26.32 56.64, 26.28 56.74 Q 26.25 56.84, 26.25 56.93 Q 26.25 57.03, 26.23 57.13 Q 26.22 57.23, 26.22 57.32 Q 26.22 57.42, 26.22 57.52 Q 26.22 57.62, 26.25 57.71 Q 26.27 57.81, 26.27 57.91 Q 26.27 58.01, 26.29 58.11 Q 26.32 58.20, 26.35 58.30 Q 26.39 58.40, 26.42 58.50 Q 26.44 58.59, 26.50 58.69 Q 26.56 58.79, 26.65 58.89 Q 26.73 58.98, 26.86 59.08 Q 26.98 59.18, 27.16 59.28 Q 27.34 59.38, 27.77 59.47 Q 28.20 59.57, 28.61 59.67 Q 29.03 59.77, 29.59 59.86 Q 30.15 59.96, 30.52 60.06 Q 30.88 60.16, 31.21 60.25 Q 31.54 60.35, 31.80 60.45 Q 32.06 60.55, 32.25 60.64 Q 32.45 60.74, 32.59 60.84 Q 32.74 60.94, 32.86 61.04 Q 32.98 61.13, 33.08 61.23 Q 33.18 61.33, 33.26 61.43 Q 33.35 61.52, 33.42 61.62 Q 33.50 61.72, 33.53 61.82 Q 33.57 61.91, 33.62 62.01 Q 33.67 62.11, 33.72 62.21 Q 33.76 62.30, 33.80 62.40 Q 33.84 62.50, 33.87 62.60 Q 33.91 62.70, 33.96 62.79 Q 34.01 62.89, 34.03 62.99 Q 34.06 63.09, 34.11 63.18 Q 34.16 63.28, 34.18 63.38 Q 34.20 63.48, 34.24 63.57 Q 34.28 63.67, 34.30 63.77 Q 34.33 63.87, 34.35 63.96 Q 34.38 64.06, 34.41 64.16 Q 34.45 64.26, 34.46 64.36 Q 34.47 64.45, 34.50 64.55 Q 34.52 64.65, 34.53 64.75 Q 34.55 64.84, 34.56 64.94 Q 34.57 65.04, 34.59 65.14 Q 34.62 65.23, 34.63 65.33 Q 34.64 65.43, 34.66 65.53 Q 34.67 65.62, 34.84 65.72 Q 35.01 65.82, 35.02 65.92 Q 35.03 66.02, 31.10 66.11 Q 27.17 66.21, 27.12 66.31 Q 27.08 66.41, 27.03 66.50 Q 26.98 66.60, 26.93 66.70 Q 26.88 66.80, 26.83 66.89 Q 26.78 66.99, 26.75 67.09 Q 26.71 67.19, 26.67 67.29 Q 26.64 67.38, 26.59 67.48 Q 26.54 67.58, 26.49 67.68 Q 26.44 67.77, 26.40 67.87 Q 26.37 67.97, 26.33 68.07 Q 26.29 68.16, 26.26 68.26 Q 26.22 68.36, 26.18 68.46 Q 26.15 68.55, 26.12 68.65 Q 26.10 68.75, 26.09 68.85 Q 26.07 68.95, 26.01 69.04 Q 25.95 69.14, 25.93 69.24 Q 25.90 69.34, 25.89 69.43 Q 25.88 69.53, 25.83 69.63 Q 25.78 69.73, 25.74 69.82 Q 25.71 69.92, 25.70 70.02 Q 25.68 70.12, 25.65 70.21 Q 25.61 70.31, 25.59 70.41 Q 25.56 70.51, 25.54 70.61 Q 25.51 70.70, 25.50 70.80 Q 25.49 70.90, 25.45 71.00 Q 25.42 71.09, 25.39 71.19 Q 25.37 71.29, 25.37 71.39 Q 25.37 71.48, 25.34 71.58 Q 25.32 71.68, 25.29 71.78 Q 25.27 71.88, 25.26 71.97 Q 25.24 72.07, 25.22 72.17 Q 25.20 72.27, 25.20 72.36 Q 25.20 72.46, 25.20 72.56 Q 25.20 72.66, 25.17 72.75 Q 25.15 72.85, 25.15 72.95 Q 25.15 73.05, 25.13 73.14 Q 25.12 73.24, 25.11 73.34 Q 25.10 73.44, 25.10 73.54 Q 25.10 73.63, 25.10 73.73 Q 25.10 73.83, 25.11 73.93 Q 25.12 74.02, 25.10 74.12 Q 25.07 74.22, 25.07 74.32 Q 25.07 74.41, 25.07 74.51 Q 25.07 74.61, 25.07 74.71 Q 25.07 74.80, 25.07 74.90 Q 25.07 75.00, 25.09 75.10 Q 25.10 75.20, 25.11 75.29 Q 25.12 75.39, 25.12 75.49 Q 25.12 75.59, 25.16 75.68 Q 25.20 75.78, 25.17 75.88 Q 25.15 75.98, 25.17 76.07 Q 25.20 76.17, 25.21 76.27 Q 25.22 76.37, 25.23 76.46 Q 25.24 76.56, 25.27 76.66 Q 25.29 76.76, 25.32 76.86 Q 25.34 76.95, 25.35 77.05 Q 25.37 77.15, 25.38 77.25 Q 25.39 77.34, 25.44 77.44 Q 25.49 77.54, 25.51 77.64 Q 25.54 77.73, 25.56 77.83 Q 25.59 77.93, 25.65 78.03 Q 25.71 78.12, 25.73 78.22 Q 25.76 78.32, 25.81 78.42 Q 25.85 78.52, 25.89 78.61 Q 25.93 78.71, 25.99 78.81 Q 26.05 78.91, 26.10 79.00 Q 26.15 79.10, 26.22 79.20 Q 26.29 79.30, 26.35 79.39 Q 26.42 79.49, 26.49 79.59 Q 26.56 79.69, 26.65 79.79 Q 26.73 79.88, 26.87 79.98 Q 27.00 80.08, 27.06 80.18 Q 27.12 80.27, 27.22 80.37 Q 27.32 80.47, 27.44 80.57 Q 27.56 80.66, 27.67 80.76 Q 27.78 80.86, 27.93 80.96 Q 28.08 81.05, 28.23 81.15 Q 28.39 81.25, 28.58 81.35 Q 28.76 81.45, 28.99 81.54 Q 29.22 81.64, 29.54 81.74 Q 29.86 81.84, 30.22 81.93 Q 30.59 82.03, 29.63 82.13 Q 28.66 82.23, 28.89 82.32 L 29.13 82.42" stroke-width="0.40"/>
    <path d="M 56.30 45.31 Q 56.27 45.51, 56.26 45.61 Q 56.25 45.70, 56.23 45.80 Q 56.20 45.90, 56.18 46.00 Q 56.15 46.09, 56.12 46.19 Q 56.08 46.29, 56.07 46.39 Q 56.05 46.48, 56.03 46.58 Q 56.01 46.68, 55.98 46.78 Q 55.96 46.88, 55.93 46.97 Q 55.91 47.07, 55.90 47.17 Q 55.88 47.27, 55.86 47.36 Q 55.83 47.46, 55.81 47.56 Q 55.79 47.66, 55.76 47.75 Q 55.74 47.85, 55.71 47.95 Q 55.69 48.05, 55.70 48.14 Q 55.71 48.24, 55.69 48.34 Q 55.66 48.44, 55.63 48.54 Q 55.59 48.63, 55.58 48.73 Q 55.57 48.83, 55.55 48.93 Q 55.54 49.02, 55.52 49.12 Q 55.49 49.22, 55.49 49.32 Q 55.49 49.41, 55.48 49.51 Q 55.47 49.61, 55.48 49.71 Q 55.49 49.80, 55.46 49.90 Q 55.42 50.00, 55.41 50.10 Q 55.40 50.20, 55.38 50.29 Q 55.37 50.39, 55.37 50.49 Q 55.37 50.59, 55.36 50.68 Q 55.35 50.78, 55.35 50.88 Q 55.35 50.98, 55.35 51.07 Q 55.35 51.17, 55.35 51.27 Q 55.35 51.37, 55.35 51.46 Q 55.35 51.56, 55.35 51.66 Q 55.35 51.76, 55.33 51.86 Q 55.32 51.95, 55.35 52.05 Q 55.37 52.15, 55.37 52.25 Q 55.37 52.34, 55.37 52.44 Q 55.37 52.54, 55.37 52.64 Q 55.37 52.73, 55.38 52.83 Q 55.40 52.93, 55.40 53.03 Q 55.40 53.12, 55.40 53.22 Q 55.40 53.32, 55.41 53.42 Q 55.42 53.52, 55.43 53.61 Q 55.44 53.71, 55.47 53.81 Q 55.49 53.91, 55.48 54.00 Q 55.47 54.10, 55.49 54.20 Q 55.52 54.30, 55.54 54.39 Q 55.57 54.49, 55.59 54.59 Q 55.62 54.69, 55.63 54.79 Q 55.64 54.88, 55.66 54.98 Q 55.69 55.08, 55.71 55.18 Q 55.74 55.27, 55.75 55.37 Q 55.76 55.47, 55.80 55.57 Q 55.83 55.66, 55.85 55.76 Q 55.86 55.86, 55.88 55.96 Q 55.91 56.05, 55.93 56.15 Q 55.96 56.25, 55.98 56.35 Q 56.01 56.45, 56.03 56.54 Q 56.05 56.64, 56.08 56.74 Q 56.10 56.84, 56.13 56.93 Q 56.15 57.03, 56.18 57.13 Q 56.20 57.23, 56.23 57.32 Q 56.25 57.42, 56.27 57.52 Q 56.30 57.62, 56.32 57.71 Q 56.35 57.81, 56.38 57.91 Q 56.42 58.01, 56.45 58.11 Q 56.47 58.20, 56.49 58.30 Q 56.52 58.40, 56.53 58.50 Q 56.54 58.59, 56.56 58.69 Q 56.57 58.79, 56.59 58.89 Q 56.62 58.98, 56.63 59.08 Q 56.64 59.18, 56.68 59.28 Q 56.71 59.38, 56.73 59.47 Q 56.74 59.57, 56.75 59.67 Q 56.76 59.77, 56.76 59.86 Q 56.76 59.96, 56.77 60.06 Q 56.79 60.16, 56.80 60.25 Q 56.81 60.35, 56.82 60.45 Q 56.84 60.55, 56.84 60.64 Q 56.84 60.74, 56.86 60.84 Q 56.88 60.94, 56.88 61.04 Q 56.88 61.13, 56.90 61.23 Q 56.91 61.33, 56.91 61.43 Q 56.91 61.52, 56.92 61.62 Q 56.93 61.72, 56.93 61.82 Q 56.93 61.91, 56.93 62.01 Q 56.93 62.11, 56.93 62.21 Q 56.93 62.30, 56.93 62.40 Q 56.93 62.50, 56.92 62.60 Q 56.91 62.70, 56.91 62.79 Q 56.91 62.89, 56.90 62.99 Q 56.88 63.09, 56.88 63.18 Q 56.88 63.28, 56.87 63.38 Q 56.86 63.48, 56.85 63.57 Q 56.84 63.67, 56.82 63.77 Q 56.81 63.87, 56.80 63.96 Q 56.79 64.06, 56.79 64.16 Q 56.79 64.26, 56.76 64.36 Q 56.74 64.45, 56.71 64.55 Q 56.69 64.65, 56.69 64.75 Q 56.69 64.84, 56.67 64.94 Q 56.64 65.04, 56.62 65.14 Q 56.59 65.23, 56.57 65.33 Q 56.54 65.43, 56.52 65.53 Q 56.49 65.62, 56.47 65.72 Q 56.45 65.82, 56.43 65.92 Q 56.42 66.02, 56.37 66.11 Q 56.32 66.21, 56.30 66.31 Q 56.27 66.41, 56.25 66.50 Q 56.23 66.60, 56.18 66.70 Q 56.13 66.80, 56.10 66.89 Q 56.08 66.99, 56.05 67.09 Q 56.03 67.19, 55.99 67.29 Q 55.96 67.38, 55.90 67.48 Q 55.83 67.58, 55.79 67.68 Q 55.74 67.77, 55.70 67.87 Q 55.66 67.97, 55.60 68.07 Q 55.54 68.16, 55.51 68.26 Q 55.47 68.36, 55.41 68.46 Q 55.35 68.55, 55.30 68.65 Q 55.25 68.75, 55.19 68.85 Q 55.13 68.95, 55.08 69.04 Q 55.03 69.14, 54.97 69.24 Q 54.91 69.34, 54.85 69.43 Q 54.79 69.53, 54.72 69.63 Q 54.66 69.73, 54.60 69.82 Q 54.54 69.92, 54.47 70.02 Q 54.39 70.12, 54.32 70.21 Q 54.25 70.31, 54.17 70.41 Q 54.10 70.51, 54.02 70.61 Q 53.93 70.70, 53.85 70.80 Q 53.76 70.90, 53.70 71.00 Q 53.64 71.09, 53.54 71.19 Q 53.44 71.29, 53.37 71.39 Q 53.30 71.48, 53.21 71.58 Q 53.12 71.68, 53.04 71.78 Q 52.95 71.88, 52.86 71.97 Q 52.76 72.07, 52.66 72.17 Q 52.56 72.27, 52.47 72.36 Q 52.37 72.46, 52.27 72.56 Q 52.17 72.66, 52.08 72.75 Q 51.98 72.85, 51.87 72.95 Q 51.76 73.05, 51.66 73.14 Q 51.56 73.24, 51.46 73.34 Q 51.37 73.44, 51.26 73.54 Q 51.15 73.63, 51.05 73.73 Q 50.95 73.83, 50.81 73.93 Q 50.66 74.02, 50.54 74.12 Q 50.42 74.22, 50.28 74.32 Q 50.15 74.41, 50.00 74.51 Q 49.85 74.61, 49.72 74.71 Q 49.58 74.80, 49.44 74.90 Q 49.29 75.00, 49.13 75.10 Q 48.97 75.20, 48.82 75.29 Q 48.66 75.39, 48.47 75.49 Q 48.29 75.59, 48.11 75.68 Q 47.92 75.78, 47.73 75.88 Q 47.53 75.98, 47.33 76.07 Q 47.12 76.17, 46.94 76.27 Q 46.75 76.37, 46.59 76.46 Q 46.44 76.56, 46.31 76.66 Q 46.19 76.76, 46.12 76.86 Q 46.04 76.95, 45.98 77.05 Q 45.92 77.15, 45.87 77.25 Q 45.83 77.34, 45.75 77.44 Q 45.68 77.54, 45.63 77.64 Q 45.58 77.73, 45.52 77.83 Q 45.46 77.93, 45.39 78.03 Q 45.31 78.12, 45.25 78.22 Q 45.19 78.32, 45.12 78.42 Q 45.04 78.52, 44.96 78.61 Q 44.87 78.71, 44.78 78.81 Q 44.68 78.91, 44.58 79.00 Q 44.48 79.10, 44.37 79.20 Q 44.26 79.30, 44.17 79.39 Q 44.07 79.49, 43.93 79.59 Q 43.80 79.69, 43.66 79.79 Q 43.53 79.88, 43.41 79.98 Q 43.29 80.08, 43.13 80.18 Q 42.97 80.27, 42.82 80.37 Q 42.68 80.47, 42.52 80.57 Q 42.36 80.66, 42.16 80.76 Q 41.97 80.86, 41.80 80.96 Q 41.63 81.05, 41.42 81.15 Q 41.21 81.25, 40.99 81.35 Q 40.77 81.45, 40.53 81.54 Q 40.28 81.64, 40.00 81.74 Q 39.72 81.84, 39.40 81.93 Q 39.09 82.03, 38.75 82.13 Q 38.40 82.23, 38.00 82.32 Q 37.60 82.42, 37.16 82.52 Q 36.72 82.62, 36.15 82.71 Q 35.57 82.81, 35.80 82.91 L 36.04 83.01" stroke-width="0.40"/>
    <path d="M 55.93 44.92 Q 55.96 45.12, 55.77 45.21 Q 55.59 45.31, 55.57 45.41 Q 55.54 45.51, 55.51 45.61 Q 55.47 45.70, 55.44 45.80 Q 55.42 45.90, 55.40 46.00 Q 55.37 46.09, 55.35 46.19 Q 55.32 46.29, 55.29 46.39 Q 55.25 46.48, 55.24 46.58 Q 55.22 46.68, 55.19 46.78 Q 55.15 46.88, 55.14 46.97 Q 55.13 47.07, 55.10 47.17 Q 55.08 47.27, 55.05 47.36 Q 55.03 47.46, 55.02 47.56 Q 55.00 47.66, 54.98 47.75 Q 54.96 47.85, 54.93 47.95 Q 54.91 48.05, 54.88 48.14 Q 54.86 48.24, 54.85 48.34 Q 54.83 48.44, 54.74 48.54 Q 54.64 48.63, 54.64 48.73 Q 54.64 48.83, 54.55 48.93 Q 54.47 49.02, 54.52 49.12 Q 54.57 49.22, 54.59 49.32 Q 54.61 49.41, 54.63 49.51 Q 54.64 49.61, 54.63 49.71 Q 54.61 49.80, 54.63 49.90 Q 54.64 50.00, 54.64 50.10 Q 54.64 50.20, 54.63 50.29 Q 54.61 50.39, 54.61 50.49 Q 54.61 50.59, 54.61 50.68 Q 54.61 50.78, 54.60 50.88 Q 54.59 50.98, 54.59 51.07 Q 54.59 51.17, 54.59 51.27 Q 54.59 51.37, 54.58 51.46 Q 54.57 51.56, 54.57 51.66 Q 54.57 51.76, 54.57 51.86 Q 54.57 51.95, 54.57 52.05 Q 54.57 52.15, 54.57 52.25 Q 54.57 52.34, 54.57 52.44 Q 54.57 52.54, 54.57 52.64 Q 54.57 52.73, 54.58 52.83 Q 54.59 52.93, 54.60 53.03 Q 54.61 53.12, 54.61 53.22 Q 54.61 53.32, 54.63 53.42 Q 54.64 53.52, 54.65 53.61 Q 54.66 53.71, 54.69 53.81 Q 54.71 53.91, 54.74 54.00 Q 54.76 54.10, 54.76 54.20 Q 54.76 54.30, 54.79 54.39 Q 54.81 54.49, 54.83 54.59 Q 54.86 54.69, 54.87 54.79 Q 54.88 54.88, 54.91 54.98 Q 54.93 55.08, 54.94 55.18 Q 54.96 55.27, 54.98 55.37 Q 55.00 55.47, 55.03 55.57 Q 55.05 55.66, 55.08 55.76 Q 55.10 55.86, 55.11 55.96 Q 55.13 56.05, 55.15 56.15 Q 55.18 56.25, 55.20 56.35 Q 55.22 56.45, 55.26 56.54 Q 55.30 56.64, 55.31 56.74 Q 55.32 56.84, 55.36 56.93 Q 55.40 57.03, 55.42 57.13 Q 55.44 57.23, 55.47 57.32 Q 55.49 57.42, 55.52 57.52 Q 55.54 57.62, 55.57 57.71 Q 55.59 57.81, 55.63 57.91 Q 55.66 58.01, 55.69 58.11 Q 55.71 58.20, 55.74 58.30 Q 55.76 58.40, 55.79 58.50 Q 55.81 58.59, 55.82 58.69 Q 55.83 58.79, 55.85 58.89 Q 55.86 58.98, 55.88 59.08 Q 55.91 59.18, 55.92 59.28 Q 55.93 59.38, 55.94 59.47 Q 55.96 59.57, 55.98 59.67 Q 56.01 59.77, 56.02 59.86 Q 56.03 59.96, 56.03 60.06 Q 56.03 60.16, 56.05 60.25 Q 56.08 60.35, 56.08 60.45 Q 56.08 60.55, 56.09 60.64 Q 56.10 60.74, 56.12 60.84 Q 56.13 60.94, 56.13 61.04 Q 56.13 61.13, 56.13 61.23 Q 56.13 61.33, 56.15 61.43 Q 56.18 61.52, 56.18 61.62 Q 56.18 61.72, 56.18 61.82 Q 56.18 61.91, 56.19 62.01 Q 56.20 62.11, 56.20 62.21 Q 56.20 62.30, 56.20 62.40 Q 56.20 62.50, 56.20 62.60 Q 56.20 62.70, 56.19 62.79 Q 56.18 62.89, 56.18 62.99 Q 56.18 63.09, 56.16 63.18 Q 56.15 63.28, 56.14 63.38 Q 56.13 63.48, 56.13 63.57 Q 56.13 63.67, 56.12 63.77 Q 56.10 63.87, 56.07 63.96 Q 56.03 64.06, 56.02 64.16 Q 56.01 64.26, 55.99 64.36 Q 55.98 64.45, 55.96 64.55 Q 55.93 64.65, 55.92 64.75 Q 55.91 64.84, 55.88 64.94 Q 55.86 65.04, 55.85 65.14 Q 55.83 65.23, 55.81 65.33 Q 55.79 65.43, 55.75 65.53 Q 55.71 65.62, 55.64 65.72 Q 55.57 65.82, 55.59 65.92 Q 55.62 66.02, 55.58 66.11 Q 55.54 66.21, 55.51 66.31 Q 55.47 66.41, 55.44 66.50 Q 55.42 66.60, 55.38 66.70 Q 55.35 66.80, 55.31 66.89 Q 55.27 66.99, 55.22 67.09 Q 55.18 67.19, 55.15 67.29 Q 55.13 67.38, 55.08 67.48 Q 55.03 67.58, 54.98 67.68 Q 54.93 67.77, 54.87 67.87 Q 54.81 67.97, 54.76 68.07 Q 54.71 68.16, 54.65 68.26 Q 54.59 68.36, 54.54 68.46 Q 54.49 68.55, 54.43 68.65 Q 54.37 68.75, 54.30 68.85 Q 54.22 68.95, 54.19 69.04 Q 54.15 69.14, 54.08 69.24 Q 54.00 69.34, 53.94 69.43 Q 53.88 69.53, 53.80 69.63 Q 53.71 69.73, 53.65 69.82 Q 53.59 69.92, 53.49 70.02 Q 53.39 70.12, 53.33 70.21 Q 53.27 70.31, 53.20 70.41 Q 53.12 70.51, 53.04 70.61 Q 52.95 70.70, 52.88 70.80 Q 52.81 70.90, 52.72 71.00 Q 52.64 71.09, 52.54 71.19 Q 52.44 71.29, 52.37 71.39 Q 52.29 71.48, 52.21 71.58 Q 52.12 71.68, 52.03 71.78 Q 51.93 71.88, 51.82 71.97 Q 51.71 72.07, 51.61 72.17 Q 51.51 72.27, 51.42 72.36 Q 51.32 72.46, 51.21 72.56 Q 51.10 72.66, 50.98 72.75 Q 50.85 72.85, 50.74 72.95 Q 50.63 73.05, 50.52 73.14 Q 50.42 73.24, 50.31 73.34 Q 50.20 73.44, 50.06 73.54 Q 49.93 73.63, 49.80 73.73 Q 49.68 73.83, 49.54 73.93 Q 49.39 74.02, 49.27 74.12 Q 49.15 74.22, 49.00 74.32 Q 48.85 74.41, 48.69 74.51 Q 48.54 74.61, 48.36 74.71 Q 48.19 74.80, 48.01 74.90 Q 47.83 75.00, 47.62 75.10 Q 47.41 75.20, 47.19 75.29 Q 46.97 75.39, 46.77 75.49 Q 46.56 75.59, 46.36 75.68 Q 46.17 75.78, 46.03 75.88 Q 45.90 75.98, 45.80 76.07 Q 45.70 76.17, 45.62 76.27 Q 45.53 76.37, 45.48 76.46 Q 45.43 76.56, 45.36 76.66 Q 45.29 76.76, 45.24 76.86 Q 45.19 76.95, 45.14 77.05 Q 45.09 77.15, 45.03 77.25 Q 44.97 77.34, 44.90 77.44 Q 44.82 77.54, 44.76 77.64 Q 44.70 77.73, 44.60 77.83 Q 44.51 77.93, 44.40 78.03 Q 44.29 78.12, 44.21 78.22 Q 44.14 78.32, 44.06 78.42 Q 43.97 78.52, 43.86 78.61 Q 43.75 78.71, 43.64 78.81 Q 43.53 78.91, 43.41 79.00 Q 43.29 79.10, 43.16 79.20 Q 43.04 79.30, 42.92 79.39 Q 42.80 79.49, 42.66 79.59 Q 42.53 79.69, 42.36 79.79 Q 42.19 79.88, 42.03 79.98 Q 41.87 80.08, 41.70 80.18 Q 41.53 80.27, 41.33 80.37 Q 41.14 80.47, 40.92 80.57 Q 40.70 80.66, 40.42 80.76 Q 40.14 80.86, 39.88 80.96 Q 39.62 81.05, 39.36 81.15 Q 39.09 81.25, 38.77 81.35 Q 38.45 81.45, 38.09 81.54 Q 37.72 81.64, 37.18 81.74 Q 36.65 81.84, 36.13 81.93 Q 35.62 82.03, 34.38 82.13 Q 33.13 82.23, 32.96 82.32 Q 32.79 82.42, 31.26 82.52 Q 29.74 82.62, 30.19 82.71 Q 30.64 82.81, 31.86 82.91 Q 33.08 83.01, 32.96 83.11 L 32.84 83.20" stroke-width="0.40"/>
  </g>
</svg>
